<?xml version="1.0" encoding="utf-8"?>
<!-- Generator: Adobe Illustrator 21.0.2, SVG Export Plug-In . SVG Version: 6.00 Build 0)  -->
<svg version="1.1" id="Layer_1" xmlns="http://www.w3.org/2000/svg" xmlns:xlink="http://www.w3.org/1999/xlink" x="0px" y="0px"
	 viewBox="0 0 2010 1217" style="enable-background:new 0 0 2010 1217;" xml:space="preserve">
<style type="text/css">
	.st0{fill:none;}
	.st1{fill:url(#_x5F_x3C_x5F__xA0_ÓÌÚÛ_xF8FF__x5F_x3E_x5F__x5F_1_x5F__2_);}
	.st2{fill:url(#SVGID_1_);}
	.st3{fill:url(#SVGID_2_);}
	.st4{fill:url(#SVGID_3_);}
	.st5{fill:url(#SVGID_4_);}
	.st6{fill:url(#SVGID_5_);}
	.st7{fill:url(#SVGID_6_);}
	.st8{fill:url(#SVGID_7_);}
	.st9{fill:url(#SVGID_8_);}
	.st10{fill:url(#SVGID_9_);}
	.st11{fill:url(#SVGID_10_);}
	.st12{fill:url(#SVGID_11_);}
	.st13{fill:url(#SVGID_12_);}
	.st14{fill:url(#SVGID_13_);}
	.st15{fill:url(#SVGID_14_);}
	.st16{fill:url(#SVGID_15_);}
	.st17{fill:url(#SVGID_16_);}
	.st18{fill:url(#SVGID_17_);}
	.st19{fill:url(#_x5F_x3C_x5F__xA0_ÓÌÚÛ_xF8FF__x5F_x3E_x5F__x5F_1_x5F__3_);}
	.st20{fill:url(#SVGID_18_);}
	.st21{fill:url(#SVGID_19_);}
	.st22{fill:url(#SVGID_20_);}
	.st23{fill:url(#SVGID_21_);}
	.st24{fill:url(#SVGID_22_);}
	.st25{fill:url(#SVGID_23_);}
	.st26{fill:url(#SVGID_24_);}
	.st27{fill:url(#SVGID_25_);}
	.st28{fill:url(#SVGID_26_);}
	.st29{fill:url(#SVGID_27_);}
	.st30{fill:url(#SVGID_28_);}
	.st31{fill:url(#SVGID_29_);}
	.st32{fill:url(#SVGID_30_);}
	.st33{fill:url(#SVGID_31_);}
	.st34{fill:url(#SVGID_32_);}
	.st35{fill:url(#SVGID_33_);}
	.st36{fill:url(#SVGID_34_);}
</style>
<g>
	
		<rect x="66.1" y="17" transform="matrix(0.9317 -0.3633 0.3633 0.9317 -150.8769 423.3849)" class="st0" width="1967.7" height="1191.4"/>
	<g>
		
			<linearGradient id="_x5F_x3C_x5F__xA0_ÓÌÚÛ_xF8FF__x5F_x3E_x5F__x5F_1_x5F__2_" gradientUnits="userSpaceOnUse" x1="512.0447" y1="295.9932" x2="71.3913" y2="295.9932" gradientTransform="matrix(0.9317 -0.3633 0.3633 0.9317 -152.1628 408.0607)">
			<stop  offset="0" style="stop-color:#2A7FF8"/>
			<stop  offset="1" style="stop-color:#5F32C0"/>
		</linearGradient>
		<path id="_x5F_x3C_x5F__xA0_ÓÌÚÛ_xF8FF__x5F_x3E_x5F__x5F_1_x5F_" class="st1" d="M11.2,631c0.1,3.1,2.7,5.7,6,5.6
			c1.7,0,3.1-0.8,4.1-1.9l9.6,5.6c-0.4,1-0.5,2-0.5,3c0,1.5,0.4,2.8,1.2,3.9l0.5,0.7c1.5,1.9,3.9,3,6.6,2.9c3.9-0.2,7.1-3.2,7.7-6.9
			l22.7-0.9c0.9,2.8,3.7,5.1,6.8,5c1.3,0,2.6-0.4,3.6-1.1l12.6,12.3c-0.5,0.7-0.8,1.6-0.7,2.5c0,1.1,0.5,2,1.2,2.7l-7.2,8.7
			c-0.5-0.3-1.1-0.5-1.8-0.5c-1.8,0.1-3.1,1.5-3,3.3c0.1,1.8,1.5,3.1,3.3,3c1.8-0.1,3.1-1.5,3-3.3c0-0.8-0.4-1.4-0.8-2l7.3-8.6
			c0.7,0.5,1.6,0.8,2.5,0.7c0.2,0,0.5,0,0.8-0.1l14.9,37.8c-0.7,0.5-1,1.2-1,2.1c0,1.4,1.1,2.4,2.5,2.3c1.4,0,2.4-1.1,2.3-2.5
			c0-1.4-1.1-2.4-2.5-2.3c-0.2,0.1-0.3,0-0.5,0.1l-14.8-37.7c1.5-0.7,2.4-2.2,2.4-3.9c0-0.3,0-0.5-0.1-0.8l13.4-4.6
			c0.5,1.1,1.7,1.9,3,1.8c1.8-0.1,3.2-1.6,3.1-3.3s-1.6-3.2-3.3-3.1c-1.8,0.1-3.2,1.6-3.1,3.3c0.1,0.2,0,0.3,0.1,0.5L99.5,660
			c-0.8-1.4-2.2-2.4-4-2.3c-1,0.1-2,0.5-2.7,1.2l-12.5-12.1c1.4-1.4,2.2-3.2,2.2-5.3c-0.1-1.5-0.6-2.9-1.4-4l19.3-17.4
			c0.6,0.5,1.3,0.7,2.2,0.7c1.8-0.1,3.2-1.6,3.1-3.3c-0.1-1.8-1.6-3.2-3.3-3.1s-3.2,1.6-3.1,3.3c0,0.6,0.2,1.2,0.5,1.7l-19.3,17.4
			c-1.3-1.2-3.1-2-4.9-1.9c-3.7,0.2-6.6,3.1-6.5,6.8c0.1,0.3,0.1,0.6,0.1,0.6l-22.4,0.8c0,0.1,0-0.3,0-0.5c-0.1-3.1-2-5.7-4.7-7
			l9.9-25.7c0.5,0.2,1.1,0.3,1.7,0.3c3-0.1,5.3-2.6,5.2-5.6c-0.1-2.5-1.8-4.4-4.1-5l5.3-30.4c0.4,0,0.9,0.1,1.3,0
			c2.7-0.1,5.1-1.6,6.5-3.6l19.7,12.6c-0.6,1-0.9,2.1-0.8,3.3c0.1,3.3,2.9,5.8,6.2,5.7c3.2-0.1,5.8-3.3,5.7-6l17.3-0.7
			c0.4,5.5,4.7,9.2,9.9,9c1.5,0,2.9-0.4,4.1-1.1l10.3,17.6c-1.7,1.1-2.7,3-2.6,5.1c0.1,3.3,2.9,5.9,6.2,5.8c3.3-0.1,5.9-2.9,5.8-6.2
			c-0.1-3.3-2.9-5.9-6.2-5.8c-0.8,0-1.7,0.2-2.4,0.6l-10.3-17.6c2.1-1.3,3.6-3.5,4.1-5.9l52.2,9.6c0,0.2,0,0.3,0,0.5
			c0.1,2.4,2.1,4.3,4.6,4.2c0.8-0.1,1.6-0.3,2.2-0.8l13.4,16.7c-1.9,1.7-3.1,4-3,6.8l-5.5,0.4c-0.3-2.2-2.2-3.8-4.5-3.7
			c-2.4,0.1-4.3,2.1-4.2,4.6c0.1,1.8,1.1,3.1,2.5,3.8l-5.2,15c-0.4-0.2-0.7-0.2-1.1-0.2c-1.7,0-3.1,1-3.8,2.4l-11.9-4.5
			c0-0.2,0.1-0.6,0.1-0.9c-0.1-1.9-1.8-3.4-3.6-3.3c-1.9,0.1-3.4,1.8-3.3,3.6c0.1,1.9,1.8,3.4,3.6,3.3c1.3,0,2.4-0.7,2.9-1.8
			l11.9,4.5c0,0.4-0.1,0.9-0.1,1.3c0.1,1.2,0.6,2.4,1.6,3.2l-4.6,6.6c-0.5-0.3-1-0.4-1.6-0.4c-1.9,0-3.4,1.6-3.3,3.5
			c0,1.9,1.6,3.4,3.5,3.3c0.5,0,1.1-0.2,1.6-0.5l9.7,12c-0.6,0.6-0.9,1.4-0.9,2.3c0,0.9,0.3,1.7,1,2.2l-5.7,8.1
			c-0.4-0.3-1-0.4-1.5-0.4c-1.8,0.1-3.2,1.6-3.1,3.3s1.6,3.2,3.3,3.1c1.8-0.1,3.2-1.6,3.1-3.3c0-0.9-0.4-1.7-1-2.2l5.7-8.1
			c0.4,0.3,1,0.4,1.5,0.4c1.8-0.1,3.2-1.6,3.1-3.3s-1.6-3.2-3.3-3.1c-0.5,0-1.1,0.2-1.5,0.5l-9.7-12c0.6-0.6,1-1.5,0.9-2.5
			c0-0.9-0.5-1.8-1.1-2.4l4.6-6.6c0.7,0.4,1.5,0.6,2.3,0.6c2.4-0.1,4.3-2.1,4.2-4.6c-0.1-1.8-1.1-3.1-2.5-3.8l5.2-15
			c0.3,0.1,0.7,0.2,1.1,0.1c2.3-0.1,4.2-1.9,4.3-4.2l5.5-0.4c0.5,4.5,4.5,8,9.2,7.9c0.7,0,1.4-0.1,2.1-0.3l9,26.5
			c-1.6,0.7-2.7,2.3-2.6,4.2c0.1,2.4,2.1,4.3,4.6,4.2c2.5-0.1,4.4-2.1,4.3-4.6c-0.1-2.4-2.1-4.3-4.6-4.2c-0.3,0-0.5,0-0.8,0.1
			l-9-26.5c2.9-1.2,5.1-4,5.5-7.2l39.2,3l0,0c0.1,2.5,2.1,4.4,4.6,4.3c2.5-0.1,4.4-2.1,4.3-4.6c-0.1-0.4-0.1-0.8-0.3-1.3l24.1-11.6
			c1.3,2.3,3.8,3.9,6.7,3.8c1.4,0,2.5-0.5,3.7-1.1l7.7,10.6c-1.2,1-1.9,2.5-1.8,4.2c0.1,1.9,1,3.5,2.5,4.4l-5.9,11.8
			c-0.6-0.2-1.4-0.3-2.1-0.3c-2.6,0.2-4.6,2-5,4.4l-6.4-0.6c-0.1-1.9-1.8-3.4-3.6-3.3c-1.9,0.1-3.4,1.8-3.3,3.6
			c0.1,1.9,1.7,3.3,3.6,3.2c1.5-0.1,2.8-1.2,3.2-2.6l6.4,0.6c0,0-0.1,0.1,0,0.2c0.1,2.5,1.9,4.5,4.2,5l-1.1,7.5c0,0-0.1-0.1-0.2,0
			c-2.2,0-4,2-3.9,4.1c0,0.1,0,0.1,0.1,0.2l-31.3,6.5c-0.5-1.8-2.2-3-4.2-3c-2.4,0.1-4.2,2.1-4.1,4.5c0,0.8,0.3,1.5,0.6,2.1
			l-19.2,14.2c-0.6-0.6-1.6-1.1-2.6-1c-1.9,0.1-3.4,1.8-3.3,3.6c0.1,1.9,1.8,3.4,3.6,3.3c1.9-0.1,3.4-1.8,3.3-3.6
			c-0.1-0.5-0.2-1.1-0.5-1.5l19.2-14.2c0.9,0.9,2.1,1.5,3.4,1.4c2.4-0.1,4.2-2.1,4.1-4.5c0.1-0.1,0-0.2,0-0.3l31.3-6.5
			c0.5,1.7,2.1,2.9,3.9,2.8c2.2,0,4-2,3.9-4.1c-0.1-1.9-1.4-3.3-3-3.8l1.1-7.5c0.2,0,0.3,0,0.5,0c1.5,0,2.8-0.8,3.7-1.8l15.5,11.7
			c-0.3,0.6-0.5,1.4-0.5,2.1c0.1,2.1,1.9,3.7,3.9,3.6c2.2-0.1,3.8-1.9,3.7-4c-0.1-2.2-1.9-3.8-4-3.7c-1.1,0-1.9,0.4-2.6,1.1
			l-15.5-11.7c0.5-0.8,0.8-1.9,0.8-3c-0.1-1.9-1-3.5-2.5-4.4l5.9-11.8c0.6,0.3,1.4,0.4,2.2,0.4c2.7-0.1,4.9-2.1,5.1-4.6l0-1
			c-0.2-2.9-2.6-5.1-5.5-5c-0.9,0-1.8,0.3-2.5,0.8l-7.7-10.6c1.8-1.4,2.8-3.6,2.7-6c-0.1-1.9-0.8-3.5-1.9-4.7l11.8-12.1
			c1.2,0.8,2.6,1.4,4.1,1.3c3.3-0.1,5.9-2.9,5.8-6.2c-0.1-1.9-0.9-3.4-2.3-4.5l19.8-29c1.2,0.7,2.7,1.2,4.2,1.1
			c0.5,0,1.1-0.1,1.6-0.2l4.8,13.8c-1.2,0.6-1.9,1.8-1.9,3.2c0,1.9,1.6,3.4,3.5,3.3c1.9,0,3.4-1.6,3.3-3.5c0-1.9-1.6-3.4-3.5-3.3
			c-0.2,0.1-0.3,0-0.5,0.1l-4.7-13.8c2.9-1.1,4.9-4,4.8-7.3c0-0.2,0-0.4,0-0.6l11.2-2c0.6,2.3,2.8,4,5.3,3.9
			c2.9-0.1,5.2-2.6,5.1-5.5c0-0.3,0-0.5-0.1-0.7l21.4-5.5c0.6,1.6,1.9,2.8,3.6,3.3l-2.5,13.3c-0.2,0-0.4,0-0.7-0.1
			c-2.7,0.1-4.9,2.4-4.8,5.2c0.1,2.8,2.5,5,5.3,4.9c2.8-0.1,5-2.5,4.9-5.3c-0.1-2.3-1.6-4.1-3.6-4.7l2.5-13.3c0.2,0,0.5,0,0.7,0
			c2.1-0.1,3.9-1.3,4.7-3.1l30.2,10.7c-0.1,0.5-0.2,0.9-0.2,1.4c0.1,2.7,2.4,4.8,5.1,4.7c2.7-0.1,4.8-2.4,4.7-5.1
			c-0.1-2.7-2.4-4.8-5.1-4.7c-1.9,0-3.5,1.2-4.3,2.8L410,533.3c0.1-0.5,0.1-1,0.1-1.5c0-1.9-1-3.5-2.5-4.4l16.6-34
			c0.4,0.2,0.8,0.2,1.3,0.2c2-0.2,3.7-1.9,3.6-3.9c-0.2-2-1.9-3.7-3.9-3.6c-2.1,0.1-3.7,1.9-3.6,3.9c0.1,1.2,0.7,2.4,1.7,3
			L406.7,527c-0.6-0.3-1.4-0.3-2.1-0.3s-1.4,0.2-2,0.5l-7.4-13.1c1-0.7,1.6-1.9,1.5-3.1c-0.1-2.1-1.8-3.7-3.8-3.7
			c-2.1,0.1-3.7,1.9-3.6,3.9c0.1,2.1,1.9,3.7,3.9,3.6c0.4,0,0.9-0.1,1.3-0.3l7.4,13.1c-1.5,1-2.4,2.7-2.3,4.6c0,0.3,0,0.5,0.1,0.7
			l-21.4,5.5c-0.7-2.1-2.8-3.6-5.2-3.6c-2.9,0.1-5.2,2.6-5.1,5.5c-0.1,0-0.1,0.1,0,0.2l-11.2,2c-0.8-3.5-3.9-6-7.6-5.8
			c-0.1,0-0.2,0-0.3,0l-4-32.7c0.8-0.2,1.3-0.6,1.9-1.1l9.1,6.4c-0.3,0.5-0.5,1.1-0.4,1.9c0.1,2.1,1.9,3.7,3.9,3.6
			c2-0.2,3.7-1.9,3.6-3.9c-0.1-2.1-1.9-3.7-3.9-3.6c-1.1,0.1-2,0.6-2.7,1.2L347,502c0.3-0.5,0.5-1.1,0.4-1.9c0-0.5-0.2-1-0.3-1.3
			l35.1-20.3c0.7,1,1.9,1.6,3.1,1.5c2-0.2,3.7-1.9,3.6-3.9c-0.1-2.1-1.8-3.7-3.8-3.7c-2.1,0.1-3.7,1.9-3.6,3.9
			c0,0.5,0.1,0.9,0.3,1.3L346.7,498c-0.7-1-1.9-1.6-3.1-1.5c-0.3,0-0.7,0.1-1,0.2l-3.7-7.9c0.9-0.6,1.5-1.6,1.4-2.8
			c-0.1-1.8-1.5-3.1-3.3-3c-1.8,0.1-3.1,1.5-3,3.3s1.5,3.1,3.3,3c0.3,0,0.5,0,0.8-0.1l3.7,7.9c-1.1,0.7-1.8,1.9-1.8,3.3
			c0,2,1.7,3.6,3.7,3.6l4.1,32.8c-2.9,0.6-5.2,2.8-5.9,5.6l-14.9-2.9c0-0.2,0.1-0.3,0-0.4c-0.1-2.1-1.9-3.7-3.9-3.6
			c-2.1,0.1-3.7,1.9-3.6,3.9c0.1,2.1,1.9,3.7,3.9,3.6c1.6-0.1,2.9-1.1,3.4-2.6l14.9,2.9c0,0.4-0.1,0.9,0,1.3
			c0.1,2.4,1.2,4.4,2.9,5.7l-19.8,29c-1-0.6-2.1-0.9-3.3-0.8c-3.3,0.1-5.9,2.9-5.8,6.2c0,1.5,0.5,2.7,1.5,3.7l-11.8,12.1
			c-1.2-0.9-2.6-1.6-4.2-1.7l0.7-46.4c2.3-0.2,4.1-2.1,4-4.5c-0.1-2.4-2.1-4.3-4.6-4.2c-1.1,0-1.9,0.3-2.6,0.9l-16.1-16.7
			c1-1.1,1.6-2.5,1.5-4.2c0.1-0.1,0-0.2,0-0.3l12.7-2c0.4,1.6,1.9,2.7,3.7,2.7c2-0.2,3.7-1.9,3.6-3.9c-0.1-2.1-1.9-3.7-3.9-3.6
			c-2,0.2-3.7,1.9-3.6,3.9l-12.6,2.1c-0.7-2.6-2.9-4.4-5.5-4.6l-0.3-29.3c2.1-0.3,3.6-2,3.5-4.1c0-2.2-2-4-4.1-3.9
			c-2.2,0-4,2-3.9,4.1c0.1,2.1,1.6,3.7,3.6,3.8l0.3,29.4c-2.6,0.3-4.7,2.2-5.3,4.6l-13.5-2.2c0-0.2,0.1-0.3,0-0.4
			c-0.1-2.5-2.1-4.4-4.6-4.3c-2.4,0.1-4.3,2.1-4.2,4.6c0.1,2.4,2.1,4.3,4.6,4.2c2,0,3.6-1.4,4.1-3.3l13.4,2.1c0,0.2,0,0.5,0,0.7
			c0.1,1.9,1,3.4,2.3,4.5l-6.3,9.2c-0.7-0.4-1.4-0.5-2.2-0.5c-2.3,0.1-4.1,2-4.1,4.4c0,0.8,0.3,1.6,0.8,2.2l-14,12.2
			c-0.6-0.6-1.4-0.9-2.3-0.9c-1,0.1-2,0.6-2.6,1.4l-38.1-20.3c0.3-0.5,0.5-1.2,0.4-1.9c-0.1-1-0.4-1.9-0.9-2.7l17.9-16.1
			c0.6,0.4,1.2,0.7,2,0.7c1.7,0,3-1.5,3-3.2c0-1.7-1.5-3-3.2-3c-1.7,0-3,1.5-3,3.2c0,0.6,0.2,1.2,0.5,1.6L204.6,531
			c-0.9-0.8-2.1-1.3-3.4-1.2c-0.7-0.1-1.3,0.2-1.8,0.4l-5.4-9c1.4-0.8,2.1-2.4,2.1-4.1c-0.1-2.7-2.3-4.7-4.9-4.6
			c-2.7,0.1-4.7,2.3-4.6,4.9c0,0.3,0,0.5,0.1,0.7l-32.7,7.1c-0.7-2-2-3.4-3.8-4.2l11.8-37.6c0.5,0.1,1,0.1,1.5,0.1
			c3.2-0.1,5.7-2.7,5.6-6c-0.1-3.2-2.7-5.7-6-5.6c-3.2,0.1-5.7,2.7-5.6,6c0.1,2.4,1.6,4.3,3.6,5.2l-11.8,37.6
			c-0.6-0.1-1.1-0.2-1.7-0.2c-1.6,0.1-3.1,0.7-4.2,1.7l-7.6-7c0.8-0.9,1.3-2.2,1.2-3.5c-0.1-3-2.7-5.3-5.6-5.2
			c-3,0.1-5.3,2.6-5.2,5.6c0.1,3,2.6,5.3,5.6,5.2c1.2-0.1,2.4-0.6,3.3-1.4l7.6,7c-0.9,1.1-1.5,2.7-1.4,4.2c0.2,3.4,2.9,6.1,6.4,6.1
			l0.8,11.2c-3.3,0.4-5.7,3.3-5.5,6.6c0.1,1.8,0.8,3.3,1.9,4.4l-13.2,16.4c-1.6-1.3-3.7-1.9-5.9-1.8c-2.7,0.1-5,1.2-6.7,3l-8.4-7
			c0.5-0.7,0.8-1.6,0.7-2.5c-0.1-2.3-2-4.1-4.3-4c-2.3,0.1-4.1,2-4,4.3c0.1,2.3,2,4.1,4.3,4c1.1,0,2-0.5,2.7-1.2l8.4,6.9
			c-1.2,1.5-1.9,3.6-2,5.4l-17.4,0.7c-0.4-2.8-3.1-5.1-6.1-5c-1.8,0.1-3.3,1-4.4,2.2l-19.8-12.6c0.6-1.3,1-2.7,1-4.3
			c0-1.4-0.4-2.6-1-3.7l32.8-20.8c1.1,1.4,2.8,2.3,4.6,2.2c3.1-0.1,5.6-2.7,5.4-5.8c-0.1-3.1-2.7-5.6-5.8-5.4
			c-3.1,0.1-5.6,2.7-5.4,5.8c0,0.8,0.2,1.7,0.6,2.4L68,555.9c-1.6-2.2-4.1-3.5-7-3.5c-1.5,0-2.7,0.5-3.9,1.2l-8.3-12
			c1.2-1.1,2.1-2.7,2-4.6c-0.2-3.1-2.8-5.5-5.9-5.5c-3.1,0.2-5.5,2.8-5.5,5.9c0.1,3.1,2.8,5.5,5.9,5.5c1-0.1,2-0.3,2.7-0.8l8.3,12
			c-2,1.5-3.4,4-3.2,6.8c0.1,3.7,2.8,6.9,6.4,7.7l-5.3,30.4c-0.2,0-0.4,0-0.7-0.1c-1.4,0-2.5,0.6-3.4,1.3L39.5,590
			c0.4-0.6,0.6-1.3,0.6-2c-0.1-1.8-1.6-3.2-3.3-3.1c-1.8,0.1-3.2,1.6-3.1,3.3c0,1.8,1.6,3.2,3.3,3.1c0.7-0.1,1.3-0.3,1.8-0.7
			l10.7,10.3c-0.8,1-1.2,2.3-1.2,3.6c0.1,2.1,1.4,3.8,3.1,4.7l-9.9,25.8c-0.9-0.3-1.9-0.4-2.8-0.4c-3.1,0.2-5.7,1.9-7,4.5l-9.5-5.4
			c0.6-0.9,1-2.1,0.9-3.3c-0.2-3.1-2.8-5.6-6-5.5C13.9,625.1,11.4,627.7,11.2,631z M132,572.3l13.3-16.3c1.1,0.8,2.5,1.2,3.9,1.2
			c3.5-0.1,6.3-3.1,6.1-6.6c-0.2-3.4-2.9-6.1-6.4-6.1l-0.8-11.2c3.3-0.4,5.7-3.3,5.5-6.6c0-0.2,0-0.4,0-0.6l32.8-7.1
			c0.7,1.8,2.5,3.1,4.6,3.1c0.6,0,1.2-0.2,1.7-0.4l5.4,9.1c-1.2,0.9-2,2.4-1.9,4c0.1,0.5,0.1,0.9,0.3,1.3l-11.8,5
			c-0.5-0.7-1.5-1.3-2.5-1.2c-1.5,0.1-2.7,1.4-2.6,2.9c0,1.5,1.4,2.7,2.9,2.6c1.5,0,2.7-1.4,2.6-2.9c0-0.1,0-0.3-0.1-0.5l11.8-5
			c0.8,1.5,2.4,2.4,4.2,2.5l2,17.7c-1.4,0.4-2.5,1.7-2.4,3.3c0.1,1.8,1.6,3.2,3.3,3.1s3.2-1.6,3.1-3.3c-0.1-1.6-1.5-3-3.2-3.1
			l-2-17.7c1.3-0.3,2.3-1,3-2l38,20.2c-0.1,0.5-0.2,0.9-0.2,1.3c0,1.9,1.6,3.4,3.5,3.3c1.9,0,3.4-1.6,3.3-3.5
			c-0.1-0.7-0.3-1.3-0.6-1.8l14-12.2c0.8,0.7,1.9,1.1,3.1,1.1c2.3-0.1,4.1-2,4.1-4.4c-0.1-1.2-0.6-2.4-1.5-3.1l6.3-9.2
			c1,0.6,2.1,0.9,3.3,0.8c1.3-0.1,2.6-0.6,3.6-1.4l16.1,16.7c-0.6,0.9-1.1,1.9-1,3c0.1,2.3,1.8,4,3.9,4.3l-0.7,46.4
			c-2.5,0.1-4.7,1.5-5.9,3.5l-14-7.5c0.2-0.5,0.4-1.2,0.3-1.8c-0.1-2.4-2.1-4.3-4.6-4.2c-2.4,0.1-4.3,2.1-4.2,4.6
			c0.1,2.4,2.1,4.3,4.6,4.2c1.5,0,2.8-0.8,3.5-1.9l14,7.5c-0.4,1-0.8,2.1-0.7,3.3c0,0.9,0.2,1.7,0.6,2.5l-24.1,11.6
			c-0.8-1.4-2.2-2.2-3.9-2.2c-2.1,0.1-3.8,1.6-4.2,3.6l-39.2-3c0-0.2,0-0.3,0-0.5c-0.1-3-1.8-5.7-4.2-7.2l6.5-11.7
			c0.6,0.3,1.3,0.4,1.9,0.4c2.4-0.1,4.3-2.1,4.2-4.6c-0.1-2.4-2.1-4.3-4.6-4.2c-2.4,0.1-4.3,2.1-4.2,4.6c0,1.5,0.8,2.7,1.9,3.5
			l-6.5,11.7c-1.3-0.6-2.7-1-4.3-1c-1.8,0.1-3.4,0.7-4.8,1.7l-13.4-16.7c0.8-0.8,1.4-2.1,1.3-3.4c-0.1-2.5-2.1-4.4-4.6-4.3
			c-1.9,0-3.5,1.4-4,3.1l-52.2-9.6c0-0.4,0-1,0-1.5C135.3,576.7,134,574.2,132,572.3z"/>
		
			<linearGradient id="SVGID_1_" gradientUnits="userSpaceOnUse" x1="3027.7271" y1="1424.2865" x2="2988.5288" y2="1424.2865" gradientTransform="matrix(-0.9317 0.3633 -0.3633 -0.9317 3392.8013 731.3857)">
			<stop  offset="0" style="stop-color:#2A7FF8"/>
			<stop  offset="1" style="stop-color:#5F32C0"/>
		</linearGradient>
		<path class="st2" d="M58.5,495.8l4.6-0.3c0.4,3.8,3.8,6.7,7.6,6.6c0.6,0,1.2-0.2,1.8-0.3l7.4,22c-1.3,0.6-2.2,1.9-2.1,3.5
			c0.1,2.1,1.7,3.6,3.8,3.6c2.1-0.1,3.6-1.8,3.6-3.8c-0.1-2.1-1.7-3.6-3.8-3.6c-0.3,0-0.5,0-0.7,0.1l-7.4-22c2.5-1,4.3-3.3,4.6-5.9
			l0-0.7c0.1-0.1,0-0.3,0-0.4c-0.2-2.6-1.5-4.8-3.5-6l5.4-9.7c0.5,0.2,1.1,0.3,1.6,0.3c2.1-0.1,3.6-1.7,3.6-3.8
			c-0.1-2.1-1.7-3.6-3.8-3.6s-3.6,1.7-3.6,3.8c0.1,1.2,0.7,2.3,1.5,2.9l-5.4,9.7c-1-0.5-2.3-0.8-3.5-0.7c-1.5,0-2.9,0.5-4,1.3
			l-11.1-13.9c0.8-0.7,1.1-1.7,1.1-2.8c-0.1-2.1-1.8-3.6-3.8-3.6c-1.6,0.1-2.9,1.2-3.4,2.7L49,472c-0.1,0.1-0.1,0.3,0,0.4
			c0.1,2.1,1.7,3.6,3.8,3.6c0.7-0.1,1.3-0.3,1.9-0.6l11.1,13.9c-1.5,1.3-2.5,3.4-2.4,5.6l-4.6,0.3c-0.3-1.8-1.9-3.2-3.7-3.1
			c-2.1,0.1-3.6,1.7-3.6,3.8c0,1.5,0.9,2.6,2.1,3.2l0.7,0.2c0.3,0.1,0.7,0.2,1,0.1C57.1,499.3,58.6,497.7,58.5,495.8z"/>
		
			<linearGradient id="SVGID_2_" gradientUnits="userSpaceOnUse" x1="2814.0588" y1="1199.256" x2="2740.4631" y2="1199.256" gradientTransform="matrix(-0.9317 0.3633 -0.3633 -0.9317 3392.8013 731.3857)">
			<stop  offset="0" style="stop-color:#2A7FF8"/>
			<stop  offset="1" style="stop-color:#5F32C0"/>
		</linearGradient>
		<path class="st3" d="M385.2,563.7c-1.5-1.1-3.6-0.9-4.8,0.6c-1.1,1.5-0.9,3.6,0.6,4.8c0.5,0.3,1,0.6,1.4,0.7l-1.5,23.9
			c-1.2,0.1-2.4,0.6-3.2,1.7c-1.5,2-1.1,4.6,0.7,6.1c0.1,0.1,0.1,0.1,0.3,0.1l-15.2,28.2c-1.6-0.6-3.5-0.2-4.6,1.3
			c-1.3,1.7-1.1,4.2,0.7,5.6c1.4,1.1,3.4,1.1,4.8,0.1l5,5.6c-0.1,0-0.2,0.2-0.3,0.3c-0.9,1.2-1.3,2.6-1.1,4l-18.9,4.2
			c-0.2-0.7-0.6-1.2-1.2-1.7c-1.7-1.3-4.1-1-5.3,0.6c-1.3,1.7-1,4.1,0.6,5.3c1.7,1.3,4,1.1,5.3-0.6c0.6-0.8,0.9-1.8,0.8-2.7
			l18.9-4.3c0.4,0.9,0.9,1.8,1.8,2.5c1.5,1.1,3.4,1.3,4.9,0.8l5.2,12c-0.6,0.3-1.2,0.8-1.7,1.4c-1.6,2.1-1.5,5.1,0.3,6.9l0.6,0.6
			c2.3,1.7,5.6,1.3,7.4-1c0.6-0.7,1-1.5,1.1-2.4l0-1c0-1.6-0.7-3.1-2-4.1c-1.5-1.2-3.4-1.4-5-0.9l-5.2-12c0.6-0.3,1.2-0.8,1.7-1.4
			c1.5-2,1.5-4.7-0.1-6.6l4.6-4.5c1.5,1.1,3.6,0.9,4.8-0.6c1.1-1.5,0.9-3.6-0.6-4.8c-1.5-1.1-3.6-0.9-4.8,0.6c-1,1.2-1,2.9-0.1,4.1
			l-4.6,4.5c0,0-0.1-0.1-0.2-0.1c-2-1.5-4.6-1.5-6.5-0.1l-5-5.6c0,0,0.1-0.1,0.1-0.2c1.3-1.7,1.1-4.3-0.7-5.6c0-0.1-0.1-0.1-0.2-0.1
			l15.2-28.2c1.7,0.7,3.9,0.2,5-1.3c1.5-2,1.1-4.6-0.7-6.1c-0.6-0.4-1.2-0.7-1.9-0.8l1.5-23.9c0.9,0,1.8-0.5,2.4-1.3
			C387,566.8,386.7,564.6,385.2,563.7z"/>
		
			<linearGradient id="SVGID_3_" gradientUnits="userSpaceOnUse" x1="2752.6311" y1="1168.2727" x2="2594.1643" y2="1168.2727" gradientTransform="matrix(-0.9317 0.3633 -0.3633 -0.9317 3392.8013 731.3857)">
			<stop  offset="0" style="stop-color:#2A7FF8"/>
			<stop  offset="1" style="stop-color:#5F32C0"/>
		</linearGradient>
		<path class="st4" d="M421.2,591.9c-1.3,1.6-1.1,3.8,0.4,5.2c1.6,1.3,3.8,1.1,5.2-0.4c0.3-0.5,0.7-1,0.8-1.5l19.5,4.5
			c-0.5,2.1,0.2,4.3,2,5.9c0.5,0.4,1,0.8,1.7,1l-2.9,7.4c-1.3-0.4-2.9,0-3.9,1.1c-1.3,1.6-1.1,3.8,0.4,5.2c0.9,0.8,2.1,1.1,3.2,0.9
			l2.9,11.7c-0.8,0.2-1.5,0.7-2.1,1.3c-0.7,0.8-1.1,1.9-1.2,3l-9.7,0.3c-0.1-0.9-0.5-1.8-1.3-2.4c-1.5-1.3-3.7-1.3-5,0.1l-7.6-7
			c0.4-0.6,0.3-1.4-0.2-1.9c-0.6-0.6-1.6-0.5-2.1,0.1c-0.6,0.6-0.5,1.6,0.1,2.1c0.5,0.4,1.3,0.4,1.9,0l7.6,7c-1,1.4-1.1,3.2-0.1,4.5
			l-5.9,4.6l0,0c-0.6-0.6-1.6-0.5-2.1,0.1c-0.6,0.6-0.5,1.6,0.1,2.1c0.6,0.6,1.6,0.5,2.1-0.1c0.4-0.5,0.5-1.2,0.2-1.7l5.9-4.6
			c0.1,0.1,0.2,0.2,0.3,0.3c0.8,0.8,1.9,1.1,3,0.9l1.2,5.5c-0.3,0.1-0.5,0.3-0.7,0.5c-0.6,0.8-0.6,1.8,0.1,2.5
			c0.8,0.6,1.8,0.6,2.5-0.1c0.6-0.8,0.6-1.8-0.1-2.5c-0.4-0.4-0.8-0.5-1.3-0.4l-1.2-5.6c0.7-0.2,1.2-0.6,1.8-1.1
			c0.7-0.7,1-1.5,1-2.4l9.7-0.2c0,1.1,0.6,2.3,1.5,3.1c0.8,0.6,1.6,1.1,2.4,1.1L449,662c-1.1,0-2.1,0.4-2.9,1.2
			c-1.1,1.3-1.2,3.1-0.2,4.5l-4.1,3.2l0-0.1c-0.8-0.6-2-0.6-2.7,0.2l-0.1,0.1l-5.1-3.1c0.5-1,0.3-2.3-0.6-3.1
			c-0.8-0.7-2.1-0.9-3.1-0.3l-6.6-9.3l0.1,0c0.6-0.6,0.5-1.6-0.1-2.1c-0.6-0.6-1.5-0.6-2.1,0.1c-0.6,0.6-0.5,1.6,0.1,2.1
			c0.5,0.3,1.1,0.5,1.7,0.2l6.6,9.3c-0.1,0.1-0.2,0.2-0.3,0.3c-0.7,0.7-0.8,1.7-0.6,2.5l-9.6,4c-0.1-0.2-0.3-0.4-0.4-0.6
			c-0.8-0.7-2.1-0.6-2.9,0.2c-0.7,0.8-0.6,2.1,0.2,2.9s2.1,0.6,2.9-0.2c0.4-0.6,0.6-1.3,0.4-1.9l9.6-4c0.2,0.3,0.3,0.6,0.6,0.8
			c0.3,0.3,0.7,0.5,1.2,0.6l-2.3,18c-0.5,0-1.1,0.2-1.5,0.7c-0.7,0.8-0.6,2.1,0.2,2.9c0.8,0.7,2.1,0.6,2.9-0.2
			c0.7-0.8,0.6-2.1-0.2-2.9c-0.3-0.3-0.6-0.4-0.9-0.5l2.3-18c0.7,0,1.5-0.3,2.1-0.9c0,0,0.1-0.1,0.1-0.2l5.1,3.1
			c-0.4,0.7-0.2,1.6,0.4,2.1c0.8,0.6,2,0.6,2.7-0.2c0.6-0.6,0.6-1.5,0.2-2.2l4.1-3.2c0.1,0.1,0.2,0.2,0.3,0.3
			c1.6,1.3,3.8,1.2,5.2-0.4c0.4-0.5,0.7-1.1,0.8-1.7l0-0.4c0.1-1.1-0.3-2.3-1.2-3.1c-0.6-0.5-1.2-0.8-1.9-0.9l1.9-20.1
			c1.4,0.1,2.8-0.4,3.7-1.5c1.3-1.6,1.5-3.7,0.5-5.4l4.4-2.8c0.2,0.1,0.4,0.4,0.5,0.5c1.3,1.3,3.6,1.1,4.8-0.3
			c1.3-1.3,1.1-3.6-0.3-4.8c-1.3-1.3-3.6-1.1-4.8,0.3c-1,1.1-1.1,2.8-0.5,4l-4.4,2.8c-0.2-0.2-0.4-0.6-0.7-0.8c-1.1-1-2.6-1.4-4-1.1
			l-2.9-11.7c0.6-0.2,1.2-0.6,1.7-1.1c1.3-1.6,1.1-3.8-0.4-5.2c-0.2-0.2-0.6-0.4-0.9-0.6l2.9-7.4c2.3,0.9,5,0.2,6.8-1.7
			c0.9-1,1.4-2.1,1.5-3.3l15.9,1.6c0,1.1,0.4,2.1,1.2,2.9c1.6,1.3,3.8,1.1,5.2-0.4c0.1-0.2,0.3-0.3,0.3-0.5l17.5,10.1
			c-0.7,1.2-0.7,2.6-0.1,3.8l-7.9,4.3c-0.1-0.2-0.3-0.4-0.4-0.6c-1.1-1-2.9-0.9-3.9,0.3c-1,1.1-0.9,2.9,0.3,3.9s2.9,0.9,3.9-0.3
			c0.7-0.8,0.9-1.9,0.4-2.9l7.9-4.3c0.2,0.3,0.5,0.7,0.8,1c1.3,1.1,3,1.3,4.5,0.8l3.5,7.4c-0.1,0.2-0.3,0.2-0.5,0.4
			c-0.7,0.8-0.7,2,0.1,2.8c0.8,0.7,2,0.7,2.8-0.1c0.2-0.1,0.2-0.2,0.3-0.3l8.3,3.5c-0.2,0.4,0,0.9,0.4,1.2c0.6,0.5,1.4,0.4,1.9-0.1
			c0.5-0.6,0.4-1.4-0.1-1.9c-0.6-0.5-1.4-0.4-1.9,0.1c-0.1,0-0.1,0.1-0.1,0.2l-8.3-3.5c0.3-0.6,0-1.5-0.6-2s-1.3-0.6-1.9-0.4
			l-3.5-7.4c0.4-0.3,0.8-0.6,1.2-1c0.4-0.6,0.7-1.1,0.9-1.7l18,4.1c-0.1,1,0.2,2,1,2.8c1.3,1.2,3.2,1,4.3-0.2
			c0.4-0.5,0.7-1.2,0.7-1.9l4-0.1c0.1,0.7,0.4,1.5,1,2c1.1,0.9,2.5,1,3.6,0.4l5.5,8.2c-0.1,0-0.1,0.2-0.2,0.2
			c-0.7,0.8-0.7,2,0.1,2.8c0.8,0.7,2,0.7,2.8-0.1c0.7-0.8,0.7-2-0.1-2.8c-0.6-0.6-1.5-0.7-2.2-0.3l-5.5-8.2c0.1,0,0.2-0.2,0.4-0.4
			s0.3-0.3,0.4-0.6l26.1,11.9c-0.3,0.8-0.1,1.7,0.6,2.3c0.9,0.8,2.3,0.8,3.1-0.2c0.8-0.9,0.8-2.3-0.2-3.1s-2.3-0.8-3.1,0.2
			c-0.2,0.1-0.2,0.2-0.3,0.3l-26.1-11.9c0.5-1.1,0.2-2.5-0.8-3.4c-0.2-0.1-0.5-0.3-0.7-0.5l2.5-6.8c0.8,0.2,1.6,0,2.2-0.6
			c0.7-0.8,0.6-2.1-0.2-3c-0.8-0.7-2.1-0.6-3,0.2c-0.7,0.8-0.6,2.1,0.2,3c0.2,0.1,0.3,0.3,0.5,0.3l-2.5,6.8c-1.2-0.3-2.4,0-3.2,0.9
			c-0.4,0.5-0.7,1.2-0.7,1.9l-4,0.1c-0.1-0.7-0.4-1.5-1-2c-1.3-1.2-3.2-1-4.3,0.2c-0.3,0.4-0.4,0.8-0.6,1.2l-18-4.1
			c0.3-1.5-0.2-3-1.3-4c-0.6-0.6-1.5-0.9-2.3-1l0.6-6.1c1.1,0,2.1-0.4,2.9-1.2c1.3-1.6,1.1-3.8-0.4-5.2c-1.6-1.3-3.8-1.2-5.2,0.4
			c-1.3,1.6-1.1,3.8,0.4,5.2c0.5,0.5,1.2,0.8,1.9,0.9l-0.6,6.1c-1.3,0-2.5,0.5-3.4,1.4c-0.1,0.2-0.3,0.4-0.4,0.6l-17.5-10.1
			c0.7-1.2,0.6-2.8-0.4-3.9l14.4-13.1c0,0.1,0.1,0.1,0.2,0.1c1.1,0.9,2.6,1.2,3.8,0.7l1.5,3.5c-0.1,0-0.2,0.1-0.2,0.2
			c-0.5,0.6-0.4,1.4,0.1,1.9c0.6,0.5,1.4,0.4,1.9-0.1c0.5-0.6,0.4-1.4-0.1-1.9c-0.3-0.3-0.8-0.3-1.2-0.3l-1.5-3.5
			c0.4-0.3,0.8-0.5,1.1-0.9c0.6-0.6,0.9-1.4,0.9-2.2l18.2-0.3c0,0.6,0.4,1.3,0.9,1.8c1.1,1,2.8,0.9,3.8-0.2c1-1.1,0.9-2.8-0.2-3.8
			c-0.5-0.3-0.8-0.5-1.4-0.6l0.6-8.6c0.4-0.1,0.7-0.2,0.9-0.4c0.5-0.6,0.4-1.4-0.1-1.9c-0.6-0.5-1.4-0.4-1.9,0.1
			c-0.5,0.6-0.4,1.4,0.1,1.9c0.2,0.1,0.3,0.3,0.5,0.3l-0.6,8.6c-0.7,0-1.5,0.3-2,0.9c-0.4,0.5-0.6,1.1-0.7,1.6l-18.2,0.3
			c0-0.9-0.4-1.8-1.2-2.5c-0.6-0.4-1.2-0.8-1.9-0.8l1.5-15.7c0.6,0,1.3-0.3,1.7-0.8c0.8-0.9,0.7-2.4-0.2-3.3
			c-0.9-0.8-2.4-0.7-3.3,0.2c-0.8,0.9-0.7,2.4,0.2,3.3c0.3,0.3,0.6,0.5,1,0.5l-1.5,15.7c-1.1,0-2.1,0.4-2.9,1.2
			c-0.1,0.2-0.3,0.4-0.4,0.6l-7.3-3.8c0.6-1.2,0.2-2.6-0.7-3.5c-0.6-0.6-1.6-0.9-2.5-0.7l-0.9-3.9c0.2-0.1,0.4-0.3,0.7-0.5
			c0.6-0.8,0.6-1.8-0.1-2.5c-0.8-0.6-1.8-0.6-2.5,0.1c-0.6,0.8-0.6,1.8,0.1,2.5c0.4,0.4,0.8,0.5,1.3,0.4l0.9,3.9
			c-0.6,0.1-1.1,0.4-1.4,0.9c-1.2,1.2-1,3.2,0.2,4.3c0,0.1,0.2,0.1,0.2,0.1l0.3,0.3c1.2,0.7,2.8,0.5,3.8-0.7
			c0.1-0.2,0.2-0.3,0.3-0.5l7.3,3.8c-0.6,1.3-0.3,2.7,0.5,3.8l-14.4,13.1c0-0.1-0.1-0.1-0.2-0.1c-1.6-1.3-3.8-1.2-5.2,0.4
			c-0.4,0.6-0.7,1.2-0.8,1.9l-15.9-1.6c0.1-1.8-0.6-3.8-2.1-5.1c-1.3-1.2-3-1.7-4.6-1.6l-2.4-23.3c0.8-0.1,1.6-0.5,2.2-1.2
			c1.3-1.6,1.1-3.8-0.4-5.2c-1.6-1.3-3.8-1.1-5.2,0.4c-1.3,1.6-1.1,3.8,0.4,5.2c0.7,0.8,1.7,1,2.6,1l2.4,23.3
			c-1.4,0.1-2.8,0.9-3.8,2c-0.8,0.7-1.2,1.6-1.4,2.6l-19.5-4.5c0.2-1.2-0.3-2.5-1.2-3.4C425.1,590.6,422.7,590.7,421.2,591.9z"/>
		
			<linearGradient id="SVGID_4_" gradientUnits="userSpaceOnUse" x1="2476.72" y1="1161.6519" x2="2421.0522" y2="1161.6519" gradientTransform="matrix(-0.9317 0.3633 -0.3633 -0.9317 3392.8013 731.3857)">
			<stop  offset="0" style="stop-color:#2A7FF8"/>
			<stop  offset="1" style="stop-color:#5F32C0"/>
		</linearGradient>
		<path class="st5" d="M725.5,569.1c0.1-0.2,0.3-0.4,0.4-0.6c0.7-1.3,0.2-3.1-1.2-3.8c-0.5-0.2-1.1-0.4-1.7-0.3l-4.6-20.3
			c0.5-0.2,1-0.6,1.3-1.2c0.7-1.2,0.2-2.7-1-3.3c-1.2-0.7-2.7-0.2-3.3,1c-0.1,0.3-0.2,0.5-0.2,0.7l-12.5-1.1
			c0.1-1.1-0.4-2.1-1.5-2.7c-1.2-0.6-2.7-0.3-3.6,0.8l-5.7-4.4c0.1-0.1,0.2-0.3,0.3-0.4c0.9-1.6,0.7-3.4-0.3-4.8l7-5.6
			c0.3,0.3,0.5,0.5,0.9,0.7c1.7,0.9,3.7,0.2,4.5-1.3c0.9-1.6,0.2-3.7-1.3-4.5c-1.6-0.9-3.7-0.2-4.5,1.3c-0.6,1.1-0.5,2.4,0.2,3.4
			l-7,5.6c-0.3-0.4-0.7-0.8-1.2-1c-0.5-0.3-1.1-0.4-1.7-0.5l1.6-26.1c1.1,0,2.3-0.7,2.9-1.8c0.3-0.6,0.4-1.2,0.3-1.8l-0.1-0.5
			c-0.2-0.9-0.8-1.7-1.7-2.2c-1.7-0.9-3.7-0.2-4.5,1.3c-0.9,1.6-0.2,3.7,1.3,4.5c0.3,0.2,0.7,0.2,1.1,0.3l-1.6,26.1
			c-1.7,0-3.2,0.8-4.1,2.4c-0.1,0.3-0.3,0.4-0.3,0.6l-20.6-6.3c0.4-1.5-0.3-2.9-1.6-3.7c-1.6-0.9-3.7-0.2-4.5,1.3
			c-0.9,1.7-0.2,3.7,1.3,4.5c1.6,0.9,3.7,0.2,4.5-1.3c0.1-0.1,0.1-0.3,0.2-0.4l20.6,6.3c-0.4,1.6,0.2,3.4,1.3,4.5l-14.5,17.5
			c-0.1-0.1-0.2-0.1-0.3-0.2c-1.5-0.8-3.2-0.2-4,1.3c-0.8,1.5-0.2,3.2,1.3,4c0.8,0.4,1.7,0.5,2.4,0.2l0.5-0.2
			c0.5-0.3,0.9-0.7,1.2-1.2c0.7-1.2,0.3-2.7-0.6-3.6l14.5-17.5c0.2,0.1,0.3,0.3,0.6,0.4c1.9,1.1,4.3,0.5,5.7-1.1l5.7,4.4
			c-0.1,0-0.1,0-0.1,0.2c-0.8,1.5-0.3,3.4,1.2,4.1c1.4,0.7,3.2,0.1,4-1.3c0.1-0.3,0.2-0.5,0.3-0.9l12.5,1.1c0,0.8,0.5,1.7,1.3,2.1
			c0.5,0.2,1,0.4,1.5,0.3l4.5,20.2c-0.6,0.2-1.3,0.7-1.7,1.4c-0.7,1.3-0.2,3.1,1.2,3.8c1,0.5,2.3,0.4,3.1-0.3L725.5,569.1z"/>
		
			<linearGradient id="SVGID_5_" gradientUnits="userSpaceOnUse" x1="3087.155" y1="1173.6849" x2="2990.072" y2="1173.6849" gradientTransform="matrix(-0.9317 0.3633 -0.3633 -0.9317 3392.8013 731.3857)">
			<stop  offset="0" style="stop-color:#2A7FF8"/>
			<stop  offset="1" style="stop-color:#5F32C0"/>
		</linearGradient>
		<path class="st6" d="M83.7,723.8l12.7,21.4c-2.9,1.8-4.4,5.1-4.2,8.5l0.1,0.8c0.1,0.9,0.3,1.7,0.7,2.4c0.6,1.2,1.3,2.1,2.2,2.9
			l0.6,0.6c2.7,2,6.3,2.5,9.5,0.9c3.3-1.6,5.1-4.7,5.3-8l22.2-0.2c-0.1,1,0,2.1,0.5,3.1c1.3,2.8,4.7,4,7.6,2.7
			c1-0.4,1.8-1.1,2.3-1.9l13.3,7.5c-0.9,1.8-1,4,0,5.9c1.6,3.4,5.7,4.8,9,3.2c0.1,0,0.1,0,0.2-0.1l7.4,12.3
			c-1.9,1.4-2.6,4.1-1.5,6.3c1.2,2.6,4.2,3.6,6.7,2.4c2.6-1.2,3.6-4.2,2.4-6.7c-1.2-2.6-4.2-3.6-6.7-2.4c-0.1,0-0.1,0-0.1,0
			l-7.4-12.3c1.9-1.4,3-3.5,2.9-5.7l0-0.8c-0.1-0.7-0.2-1.4-0.6-2c-0.4-1.1-1.2-2-2.1-2.6l9.6-14.8c1.1,0.5,2.4,0.6,3.7,0
			c2.1-1,3-3.5,2-5.6c-1-2.1-3.5-3-5.6-2c-2.1,1-3,3.5-2,5.6c0.3,0.6,0.7,1.1,1.2,1.4l-9.6,14.8c-1.8-1.1-4.2-1.2-6.2-0.2
			c-1.2,0.6-2.1,1.4-2.7,2.4l-13.3-7.5c0.7-1.4,0.7-3.2,0-4.8c-1.3-2.8-4.7-4-7.6-2.7c-1.5,0.7-2.6,2.1-3,3.6l-22.4,0.1
			c-0.2-1.2-0.4-2.4-1-3.5c-0.8-1.8-2.2-3.1-3.8-4.1l8.3-16.3c1.7,0.7,3.8,0.7,5.6-0.2c2.3-1.1,3.7-3.2,3.9-5.5l13.2,1
			c0,0.8,0.1,1.6,0.5,2.4c1.3,2.8,4.7,4,7.6,2.7c0.5-0.2,0.8-0.4,1.1-0.6l4.6,5c-0.5,0.6-0.6,1.6-0.2,2.4c0.6,1.2,2,1.6,3.2,1.1
			c1.2-0.6,1.6-2,1.1-3.2c-0.6-1.2-2-1.6-3.2-1.1c-0.1,0-0.2,0.1-0.3,0.1l-4.6-5c1.6-1.7,2.1-4.2,1-6.4c-0.6-1.2-1.6-2.1-2.7-2.6
			l2.3-5.9c0.7,0.2,1.6,0.2,2.3-0.2c1.2-0.6,1.9-1.8,2-3l16.3-1.1c0.1,0.2,0.1,0.4,0.2,0.6c0.8,1.5,2.6,2.1,4.1,1.4
			c1.5-0.8,2.1-2.6,1.4-4.1c-0.8-1.5-2.6-2.1-4.1-1.4c-1.1,0.5-1.6,1.5-1.7,2.6l-16.3,1.1c0-0.3-0.1-0.6-0.2-0.9
			c-0.8-1.8-2.9-2.5-4.6-1.7c-1.8,0.8-2.5,2.9-1.7,4.6c0.3,0.7,0.8,1.2,1.4,1.5l-2.3,5.9c-1.3-0.3-2.7-0.3-4.1,0.3
			c-1.8,0.8-2.9,2.5-3.2,4.3l-13.2-1c0-0.9-0.2-1.9-0.7-2.9c-0.8-1.5-2-2.7-3.4-3.3l12.4-35.1c0.7,0.2,1.5,0.1,2.2-0.2
			c1.8-0.8,2.5-2.9,1.7-4.6c-0.8-1.8-2.9-2.5-4.6-1.7c-1.8,0.8-2.5,2.9-1.7,4.6c0.3,0.7,0.9,1.2,1.6,1.6L119,715.4
			c-1.7-0.5-3.4-0.4-5.1,0.3c-3.5,1.7-5,5.8-3.3,9.3c0.6,1.3,1.7,2.4,2.9,3.1l-8.2,16.2c-2.4-1.1-5.3-1.1-7.8,0.1
			c-0.2,0.1-0.3,0.1-0.4,0.1l-12.7-21.4c2.6-1.7,3.6-5.2,2.2-8.1c-1.5-3.3-5.4-4.6-8.6-3.1c-3.3,1.5-4.6,5.4-3.1,8.6
			c1.5,3.3,5.4,4.6,8.6,3.1C83.6,723.6,83.6,723.5,83.7,723.8z"/>
		
			<linearGradient id="SVGID_6_" gradientUnits="userSpaceOnUse" x1="2977.3059" y1="1415.4856" x2="2836.6558" y2="1415.4856" gradientTransform="matrix(-0.9317 0.3633 -0.3633 -0.9317 3392.8013 731.3857)">
			<stop  offset="0" style="stop-color:#2A7FF8"/>
			<stop  offset="1" style="stop-color:#5F32C0"/>
		</linearGradient>
		<path class="st7" d="M230,494.5c1.6,0.3,3.1-0.7,3.4-2.3c0.3-1.6-0.7-3.1-2.3-3.4c-0.9-0.2-1.9,0.1-2.5,0.7l-33.8-29.1
			c0.5-0.6,0.7-1.3,0.9-2c0.4-1.5,0-3-1-4.1l11.1-10.7c0.4,0.4,0.9,0.6,1.4,0.7c1.9,0.3,3.6-0.9,4-2.7c0.1-0.6,0-1,0-1.5l14.6-5.5
			c0.4,0.7,1.2,1.3,2.1,1.5c1.6,0.3,3.3-0.8,3.6-2.4c0.3-1.6-0.8-3.3-2.4-3.6c-1.6-0.3-3.3,0.8-3.6,2.4c0,0.4,0,0.8,0.1,1.2
			l-14.6,5.5c-0.5-0.8-1.3-1.5-2.3-1.7c-1.8-0.3-3.6,0.9-4,2.7c-0.1,1,0.1,1.9,0.6,2.7l-11.1,10.7c-0.6-0.6-1.4-1-2.4-1.2
			s-1.9-0.1-2.7,0.2l-5.2-10.6c1.4-0.9,2.6-2.4,3-4.2c0.7-3.4-1.5-6.7-4.9-7.4c-3.4-0.7-6.7,1.5-7.4,4.9c-0.2,1.6,0,3,0.7,4.3
			L145.2,460c-1.3-1.8-3.3-3-5.6-3.5c-2.2-0.4-4.2,0-6,0.9l-4.6-8c1.3-0.9,2.3-2.4,2.7-4.1c0.5-2.7-0.7-5.3-2.8-6.7l-0.8-0.4
			c-0.5-0.2-1-0.4-1.6-0.5c-3.5-0.7-6.9,1.5-7.6,5.1c-0.7,3.5,1.6,7,5.1,7.6c1.5,0.3,2.9,0,4.1-0.5l4.6,8c-2,1.3-3.5,3.4-4,5.9
			c-0.1,0.6-0.2,1.1-0.2,1.7l-22.7,1.2c-0.3-2.4-2.2-4.5-4.7-5c-3.2-0.6-6.2,1.4-6.8,4.6c-0.6,3.2,1.4,6.2,4.6,6.8
			c3.2,0.6,6.2-1.4,6.8-4.6c0.1-0.3,0.2-0.7,0.1-1l22.7-1.2c0.4,3.1,2.3,5.9,5.2,7.3l-3.8,8.8c-0.3-0.1-0.4-0.2-0.6-0.2
			c-2.6-0.5-5.3,1.2-5.8,3.9c-0.5,2.6,1.2,5.3,3.9,5.8c2.6,0.5,5.3-1.2,5.8-3.9c0.5-2.3-0.7-4.4-2.5-5.4l3.8-8.8
			c0.5,0.1,0.9,0.3,1.4,0.4c2.7,0.5,5.5-0.2,7.5-1.9l0.6-0.6c1.3-1.2,2.2-2.9,2.6-4.8c0.5-2.3,0-4.6-1.2-6.5l30.1-20.3
			c0.9,1.2,2.2,2,3.7,2.3c1.3,0.2,2.5,0.1,3.5-0.3l5.2,10.6c-1.2,0.7-2.1,1.9-2.4,3.3c-0.3,1.7,0.2,3.3,1.3,4.4l-6.8,7.5
			c-0.3-0.1-0.5-0.1-0.7-0.2c-1.3-0.2-2.4,0.5-2.7,1.8c-0.2,1.3,0.5,2.4,1.8,2.7s2.4-0.5,2.7-1.8c0.2-0.7,0-1.4-0.4-1.8l6.8-7.5
			c0.6,0.4,1.2,0.8,2,0.9c0.2,0,0.4,0,0.7,0.1l0.4,13.8c-1.6,0.2-2.9,1.4-3.2,3c-0.5,2.1,0.9,4,3,4.5s4-0.9,4.5-3
			c0.5-2.1-0.9-4-3-4.5c-0.1-0.1-0.3,0-0.4,0l-0.4-13.7c1.1-0.1,2.2-0.6,2.9-1.4l33.8,29.1c-0.1,0.3-0.3,0.6-0.4,1
			C227.3,492.3,228.3,493.9,230,494.5z"/>
		
			<linearGradient id="SVGID_7_" gradientUnits="userSpaceOnUse" x1="2291.3269" y1="1154.4481" x2="2261.8245" y2="1154.4481" gradientTransform="matrix(-0.9317 0.3633 -0.3633 -0.9317 3392.8013 731.3857)">
			<stop  offset="0" style="stop-color:#2A7FF8"/>
			<stop  offset="1" style="stop-color:#5F32C0"/>
		</linearGradient>
		<path class="st8" d="M829.7,461.9c-0.9,0.8-0.9,2,0,2.9c0.8,0.9,2,0.9,2.9,0c0.3-0.3,0.5-0.7,0.5-1l3.8,0.4c0,1.5,0.5,3.1,1.7,4.3
			c1.9,2,5,2.3,7.2,0.8l22.5,29.3c-0.1,0-0.2,0.1-0.2,0.2c-1.6,1.6-1.6,4.2,0,5.9c1.6,1.6,4.2,1.6,5.9,0c1.6-1.6,1.6-4.2,0-5.9
			c-1.4-1.5-3.7-1.7-5.4-0.5L846,468.9c0.1-0.2,0.4-0.4,0.5-0.5c2.3-2.3,2.3-5.9,0.1-8.1c-0.5-0.5-1.1-0.9-1.7-1.2l-0.4-0.2
			c-2-0.8-4.3-0.3-6,1.3c-1,1-1.6,2.2-1.7,3.5l-3.8-0.4c0-0.5-0.2-1.1-0.6-1.5C831.7,460.9,830.3,460.9,829.7,461.9z"/>
		
			<linearGradient id="SVGID_8_" gradientUnits="userSpaceOnUse" x1="2676.8621" y1="1160.8683" x2="2181.907" y2="1160.8683" gradientTransform="matrix(-0.9317 0.3633 -0.3633 -0.9317 3392.8013 731.3857)">
			<stop  offset="0" style="stop-color:#2A7FF8"/>
			<stop  offset="1" style="stop-color:#5F32C0"/>
		</linearGradient>
		<path class="st9" d="M958.4,496.2c-1.4-0.4-2.9,0.3-3.3,1.7c-0.1,0.1-0.1,0.3-0.1,0.6l-28,0.3c-0.1-1.2-0.9-2.3-2.1-2.7
			c-1.5-0.4-3.2,0.4-3.7,2c-0.3,0.6-0.2,1.3,0,2l-55,26.7c-0.4-0.8-1.2-1.3-2-1.6c-1-0.4-2-0.2-2.7,0.2l-5.2-8.3
			c0.3-0.2,0.6-0.6,0.8-1c0.4-1.2-0.2-2.4-1.4-2.8c-1.2-0.4-2.4,0.2-2.8,1.4c-0.4,1.2,0.2,2.4,1.4,2.8c0.6,0.2,1.1,0.1,1.6-0.1
			l5.2,8.3c-0.4,0.4-0.8,0.7-1,1.2l-50.2-21.7l0,0c0.4-1.5-0.4-3.2-2-3.7c-0.3-0.1-0.7-0.2-1-0.1l-3.8-34.6c0.8-0.2,1.4-0.8,1.6-1.5
			c0.4-1.2-0.2-2.4-1.4-2.8c-1.1-0.4-2.3,0.2-2.7,1.4c-0.4,1.2,0.2,2.4,1.4,2.8c0.2,0,0.4,0,0.7,0.1l3.8,34.6
			c-0.3,0.1-0.6,0.2-0.9,0.4L779.2,463c0.6-0.4,1.2-1.1,1.4-1.9c0.7-2-0.5-4.3-2.6-5c-1.1-0.3-2.1-0.2-3,0.2l-15-26.9
			c0.6-0.4,1.1-1,1.3-1.8c0.6-1.7-0.4-3.5-2.1-4.1c-1.7-0.6-3.5,0.4-4.1,2.1c-0.4,1.4,0.2,2.9,1.3,3.7l-5.4,9.6
			c-0.1-0.1-0.1-0.1-0.3-0.1c-1.4-0.5-2.9,0.3-3.3,1.7c-0.5,1.4,0.3,2.9,1.7,3.3c1.4,0.4,2.9-0.3,3.3-1.7c0.3-1.1-0.1-2.3-1-3
			l5.4-9.6c0.1,0.1,0.3,0.1,0.4,0.2c0.8,0.2,1.6,0.1,2.3-0.2l15,26.9c-0.7,0.5-1.4,1.2-1.7,2.1c-0.2,0.4-0.2,0.9-0.2,1.3l-46.1,4.9
			c-0.2-1.6-1.4-2.9-2.9-3.5c-1.2-0.4-2.4-0.2-3.4,0.4l-7.4-11.4c0.4-0.4,0.6-0.8,0.9-1.3c0.4-1.4-0.3-2.9-1.7-3.3
			c-1.5-0.5-2.9,0.3-3.3,1.7c-0.5,1.4,0.3,2.9,1.7,3.3c0.7,0.2,1.4,0.2,2-0.2l7.4,11.4c-0.7,0.6-1.3,1.2-1.6,2.2
			c-0.1,0-0.1,0.1-0.1,0.1l-28.9-6.5c0.2-1.6-0.7-3.1-2.2-3.5c-1.7-0.5-3.5,0.4-4,2.1c-0.2,0.6-0.2,1.2,0,1.8l-18.4,6.3
			c-0.5-1.2-1.3-2.1-2.6-2.7l7.1-19c1.4,0.4,2.9-0.4,3.3-1.8c0.5-1.5-0.3-2.9-1.8-3.4c-1.5-0.5-2.9,0.3-3.4,1.8
			c-0.3,1.3,0.2,2.7,1.5,3.2l-7.1,18.9l0,0c-2-0.7-4.3,0.1-5.5,1.8l-8.8-5.7c0.2-0.4,0.4-0.7,0.4-1c0.8-2.6-0.6-5.4-3.3-6.2
			c-2.6-0.8-5.4,0.6-6.2,3.3c-0.4,1.4-0.2,2.8,0.5,4l-22.3,15c-0.7-1-1.7-1.7-3.1-2.2c-0.5-0.1-0.8-0.2-1.3-0.2l-0.5,0
			c-1.4-0.1-2.7,0.4-3.8,1.1l-4.2-5.5c1-0.8,1.2-2.3,0.4-3.4c-0.8-1.3-2.5-1.6-3.8-0.8c-1.3,0.8-1.6,2.5-0.8,3.8
			c0.8,1.3,2.5,1.6,3.8,0.8l4.2,5.5c-0.8,0.7-1.5,1.6-1.8,2.7c-0.4,1.5-0.3,3.2,0.4,4.6l-25.3,14.4c-0.6-1-1.5-1.8-2.7-2.2
			c-2.6-0.9-5.5,0.7-6.4,3.3c-0.5,1.7-0.2,3.3,0.7,4.6l-32.6,26.2c-0.4-0.6-1.1-1-1.9-1.3c-0.4-0.2-0.9-0.2-1.3-0.2l-0.5,0
			c-1.6,0.2-3.1,1.3-3.6,3c0,0.4-0.1,0.8-0.2,1.2l-48.1,1.5c-0.1-1.9-1.5-3.7-3.5-4.4c-0.7-0.2-1.5-0.3-2.2-0.2l-1.2-6.9
			c1.1-0.3,2.1-1.1,2.5-2.3c0.7-1.8-0.4-3.8-2.2-4.4c-1.8-0.7-3.8,0.4-4.4,2.2c-0.7,1.8,0.4,3.8,2.2,4.4c0.5,0.2,0.9,0.3,1.4,0.2
			l1.2,6.9c-1.4,0.4-2.7,1.2-3.4,2.7L441.4,513l0.1-0.1c0.6-2-0.5-4-2.4-4.6c-2-0.6-4,0.5-4.6,2.4c-0.6,1.9,0.5,3.9,2.4,4.5
			c0.3,0.1,0.5,0.1,0.7,0.2l0.5,0c1.4,0,2.6-0.8,3.2-2l33.3,14.6c-0.1,0.1-0.1,0.1-0.1,0.3c-0.9,2.6,0.7,5.5,3.3,6.4
			c2.6,0.9,5.5-0.7,6.4-3.3c0.1-0.5,0.2-0.9,0.2-1.4l48.1-1.5c0.2,1.7,1.3,3.1,2.9,3.7l-3.2,11c-1.7-0.4-3.4,0.6-4,2.3
			c-0.7,1.8,0.4,3.8,2.2,4.4c1.8,0.7,3.8-0.4,4.4-2.2s-0.4-3.7-2.1-4.3l3.2-11c2.2,0.4,4.4-0.8,5.1-2.9c0.4-1.3,0.1-2.7-0.6-3.8
			l32.6-26.2c0.6,0.6,1.3,1.2,2.2,1.4c2.6,0.9,5.5-0.7,6.4-3.3c0.4-1.3,0.2-2.7-0.3-3.9l25.3-14.4c0.6,0.9,1.5,1.7,2.6,2.3
			l-4.8,11.2l-0.1-0.1c-2-0.7-4.2,0.5-4.9,2.5c-0.6,2.1,0.5,4.3,2.6,5c2,0.7,4.2-0.5,4.9-2.5c0.6-1.9-0.3-3.9-1.9-4.7l4.8-11.2
			c0.1,0,0.2,0,0.3,0.1c1.7,0.5,3.4,0.3,4.7-0.5l9.5,15.8c-0.9,0.7-1.7,1.6-2.1,2.8c-0.8,2.5,0.3,5,2.4,6.2l-9.7,19.4
			c-0.1-0.1-0.3-0.2-0.5-0.2c-2.8-0.9-5.6,0.6-6.6,3.4c-0.9,2.8,0.6,5.6,3.4,6.6c2.3,0.7,4.6-0.2,5.9-2.1l26,15.5
			c-0.1,0.3-0.2,0.5-0.3,0.8c-0.5,1.7,0,3.4,1.1,4.5l-13.5,15.7c-0.5-0.3-1-0.7-1.6-0.8c-2.8-0.9-5.6,0.6-6.6,3.4
			c-0.9,2.8,0.6,5.6,3.4,6.6c0.5,0.1,1,0.2,1.6,0.2l2,38.4c-1.1,0.1-2.2,0.6-3,1.5l-7.6-6.5c0.2-0.3,0.4-0.6,0.5-0.9
			c0.5-1.7-0.4-3.4-2.1-3.9c-0.7-0.2-1.4-0.2-2.1,0.1l-4.6-9.6c0.4-0.3,0.8-0.7,0.9-1.2c0.4-1.2-0.3-2.3-1.4-2.7
			c-1.2-0.4-2.3,0.3-2.7,1.4c-0.4,1.1,0.2,2.2,1.3,2.6c0.5,0.1,1,0.1,1.4,0l4.6,9.6c-0.6,0.3-1.2,1-1.4,1.7
			c-0.5,1.7,0.4,3.4,2.1,3.9c1.2,0.3,2.3,0,3.2-0.8l7.6,6.5c-0.3,0.5-0.6,0.9-0.8,1.5c-0.8,2.3,0.2,4.6,2.3,5.7l-18,39.4
			c-0.1,0-0.1-0.1-0.3-0.1c-2.4-0.7-4.9,0.6-5.7,3c-0.1,0.1,0,0.2-0.1,0.3l-9.6-1.8c0.3-2-0.9-3.9-2.8-4.5c-1.3-0.4-2.7-0.2-3.8,0.6
			l-7-8.2c0.3-0.3,0.6-0.8,0.8-1.2c0.5-1.7-0.4-3.4-2.1-3.9c-1.7-0.5-3.4,0.4-3.9,2.1c-0.1,0.3-0.2,0.7-0.1,1l-26.8,2.2
			c-0.2-1-0.9-1.8-1.9-2.1c-1.5-0.4-3,0.3-3.5,1.8c-0.5,1.5,0.3,2.9,1.8,3.4c1.5,0.4,3-0.3,3.5-1.8c0.1-0.3,0.1-0.5,0.1-0.8
			l26.8-2.2c0.2,1.1,0.9,2.1,2.1,2.4c1,0.4,2,0.1,2.8-0.4l7,8.2c-0.6,0.4-0.9,1-1.1,1.7c-0.7,2,0.4,4.2,2.3,5l-2.7,7.4
			c-1.7-0.5-3.3,0.4-3.8,2c-0.5,1.7,0.4,3.4,2.1,3.9c1.7,0.5,3.4-0.4,3.9-2.1c0.4-1.5-0.3-3.1-1.7-3.8l2.7-7.4
			c2.1,0.6,4.4-0.6,5.1-2.7c0,0,0-0.1,0-0.2l9.6,1.8c-0.3,2.2,1,4.4,3.1,5c0.4,0.2,0.7,0.2,1,0.2l0.5,0c1.1,0,2.2-0.5,3-1.3l6.5,6.1
			c-0.2,0.3-0.4,0.7-0.5,1c-0.5,1.7,0.4,3.4,2.1,3.9c1.6,0.5,3.3-0.4,3.9-1.9l12.6,3.4c-0.2,1.6,0.6,3.1,2.1,3.6
			c1.7,0.5,3.4-0.4,3.9-2.1s-0.4-3.4-2.1-3.9c-1.6-0.5-3.3,0.4-3.9,1.9l-12.6-3.4c0.2-1.6-0.6-3.1-2.1-3.6c-1.1-0.4-2.2-0.1-3,0.6
			l-6.5-6.1c0.3-0.5,0.7-1,0.9-1.6c0.7-2.2-0.3-4.4-2.2-5.4l18-39.4c0,0,0.1,0.1,0.3,0.1c2.6,0.9,5.2-0.6,6-3.1
			c0.1-0.6,0.2-1.1,0.2-1.7l8.5-0.9c0.2,1.1,1,2,2.1,2.4c0.4,0.2,0.8,0.2,1.2,0.2l2.4,14.3c-0.9,0.2-1.5,0.9-1.8,1.8
			c-0.4,1.3,0.4,2.8,1.7,3.2c1.3,0.4,2.8-0.4,3.2-1.7c0.4-1.3-0.4-2.8-1.7-3.2c-0.3-0.1-0.7-0.2-1-0.1l-2.4-14.3
			c1-0.3,1.9-1.1,2.2-2.1c0.5-1.7-0.4-3.4-2.1-3.9c-1.7-0.5-3.4,0.4-3.9,2.1c-0.1,0.3-0.2,0.7-0.1,1l-8.5,0.9
			c-0.3-1.8-1.5-3.3-3.3-3.9c-0.5-0.1-0.9-0.2-1.4-0.2l-2-38.4c2-0.2,3.8-1.6,4.5-3.6c0.7-2,0-4-1.4-5.4l13.5-15.7
			c0.5,0.3,0.9,0.6,1.3,0.7c1.1,0.3,2.1,0.2,3-0.1l12.2,26.4c-0.6,0.3-1.2,0.9-1.4,1.7c-0.5,1.7,0.4,3.4,2.1,3.9s3.4-0.4,3.9-2.1
			s-0.4-3.4-2.1-3.9c-0.6-0.3-1.3-0.2-2,0l-12.2-26.4c1-0.5,1.8-1.3,2.2-2.5c0.7-2.3-0.6-4.7-2.9-5.5c-1.9-0.6-3.9,0.2-5,1.7
			l-26-15.5c0.2-0.3,0.3-0.5,0.4-0.9c0.8-2.5-0.3-5-2.4-6.2l9.7-19.4c0.1,0.1,0.3,0.2,0.5,0.2c2.8,0.9,5.6-0.6,6.6-3.4
			c0.9-2.8-0.6-5.6-3.4-6.6c-1.4-0.4-2.8-0.3-4,0.4l-9.5-15.8c1.1-0.7,2-1.9,2.4-3.3c0.6-1.8,0.3-3.6-0.6-5l22.2-15
			c0.6,0.8,1.5,1.4,2.5,1.8c2,0.7,4.3-0.1,5.5-1.8l8.8,5.7c-0.2,0.4-0.4,0.7-0.4,1c-0.8,2.6,0.6,5.4,3.3,6.2c1.8,0.6,3.7,0,5-1.2
			l10.6,9.7c-0.2,0.3-0.4,0.7-0.5,1c-0.6,1.7,0.4,3.5,2.1,4.1c1.7,0.6,3.5-0.4,4.1-2.1c0.6-1.7-0.4-3.5-2.1-4.1
			c-1.2-0.4-2.4,0-3.3,0.8l-10.6-9.7c0.4-0.5,0.8-1,0.9-1.6c0.4-1,0.3-1.9,0-2.9l18.4-6.3c0.4,0.9,1,1.6,2,1.9
			c1.7,0.5,3.5-0.4,4-2.1l0,0l28.9,6.5c-0.3,2.1,0.9,4.2,2.9,4.8l0.1,0.1l-3.2,14.5c-1.6-0.2-3.2,0.7-3.6,2.3
			c-0.6,1.7,0.4,3.5,2.1,4.1c1.2,0.4,2.5,0.1,3.3-0.8l10.5,9.4c-0.2,0.3-0.3,0.5-0.4,0.8c-0.4,1.3,0.3,2.9,1.7,3.3
			c1.3,0.4,2.9-0.3,3.3-1.7c0.4-1.4-0.3-2.9-1.7-3.3c-0.9-0.3-1.9,0-2.6,0.6l-10.5-9.4c0.2-0.3,0.5-0.7,0.5-1
			c0.6-1.7-0.4-3.5-2.1-4.1l0,0l3.2-14.5c2.1,0.3,4.2-0.9,4.8-2.9c0.1-0.5,0.1-1,0.1-1.5l46.1-4.9c0.3,1.5,1.2,2.7,2.7,3.2
			c0.1,0.1,0.3,0.1,0.5,0.1l-0.8,5.9c-1.5-0.1-2.8,0.8-3.3,2.2c-0.6,1.7,0.4,3.5,2.1,4.1c1.7,0.6,3.5-0.4,4.1-2.1s-0.4-3.5-2.1-4.1
			c-0.1-0.1-0.2,0-0.3-0.1l0.8-5.9c0.8,0,1.6-0.2,2.3-0.6l26.2,38.6c-0.5,0.4-0.8,0.8-1,1.4c-0.2,0.4-0.2,0.9-0.1,1.3l-7,1.6
			c-0.2-0.6-0.6-1.1-1.4-1.4c-1.2-0.4-2.4,0.2-2.8,1.4s0.2,2.4,1.4,2.8c1.1,0.4,2.3-0.2,2.7-1.4c0.1-0.3,0.1-0.6,0.1-0.9l7-1.6
			c0.3,0.9,1,1.7,1.9,2c0.1,0.1,0.2,0,0.3,0.1l-3.1,32.4c-0.9,0-1.8,0.6-2,1.5c-0.4,1.2,0.2,2.4,1.4,2.8c1.2,0.4,2.4-0.2,2.8-1.4
			c0.4-1.1-0.2-2.3-1.4-2.7c-0.1,0-0.1-0.1-0.2,0l3.1-32.4c1.1,0,2.1-0.5,2.6-1.6l50.2,21.7l-0.1,0.1c-0.6,1.9,0.5,3.9,2.3,4.5
			c0.3,0.1,0.5,0.1,0.7,0.2l-0.5,9c-0.8,0-1.6,0.6-1.9,1.5c-0.4,1.2,0.2,2.4,1.4,2.8c0.7,0.2,1.5,0,2.1-0.4l9.5,9.1
			c-0.1,0.1-0.2,0.4-0.2,0.5c-0.3,0.9,0.2,1.9,1.2,2.2s1.9-0.2,2.2-1.2c0.3-0.9-0.2-1.9-1.2-2.2c-0.6-0.2-1.2-0.1-1.6,0.3l-9.5-9.1
			c0.1-0.2,0.3-0.4,0.4-0.7c0.4-1.1-0.2-2.3-1.4-2.7c-0.1-0.1-0.2,0-0.3-0.1l0.5-9c1.5,0,2.8-1,3.3-2.4c0.3-0.9,0.2-1.7-0.1-2.4
			l55-26.7c0.3,0.6,1,1.1,1.7,1.3c1.5,0.4,3.2-0.4,3.7-2c0.1-0.3,0.1-0.5,0.2-0.7l28.1-0.2c0.1,1,0.7,1.9,1.8,2.2
			c1.4,0.4,2.9-0.3,3.3-1.7C960.2,498.1,959.4,496.6,958.4,496.2z"/>
		
			<linearGradient id="SVGID_9_" gradientUnits="userSpaceOnUse" x1="2249.4985" y1="1083.3385" x2="2219.741" y2="1083.3385" gradientTransform="matrix(-0.9317 0.3633 -0.3633 -0.9317 3392.8013 731.3857)">
			<stop  offset="0" style="stop-color:#2A7FF8"/>
			<stop  offset="1" style="stop-color:#5F32C0"/>
		</linearGradient>
		<path class="st10" d="M898.4,525.9c0.1,1.7,1.6,3,3.3,2.9c1.7-0.1,3-1.6,2.9-3.3l0-0.1l9.9-1.9c0.5,2,2.3,3.4,4.4,3.2
			c0.1,0,0.3,0,0.4-0.1l1.2,5.1c-1.2,0.4-1.9,1.5-1.9,2.7c0.1,1.5,1.4,2.6,2.9,2.5c0.4,0,0.9-0.1,1.2-0.4l5.3,6.8
			c-0.4,0.4-0.7,1-0.6,1.6c0,1.1,1.1,2,2.2,1.9c1.1,0,2-1.1,1.9-2.2c0-1.1-1.1-2-2.2-1.9c-0.3,0-0.7,0.2-0.9,0.4l-5.3-6.8
			c0.5-0.5,0.8-1.4,0.8-2.2c0.1-0.1,0-0.3-0.1-0.4l4.3-1.4c0.3,0.7,1.1,1.2,2,1.2c1.1,0,2-1.1,1.9-2.2c0-1.1-1.1-2-2.2-1.9
			c-1.1,0-2,1.1-1.9,2.2c0,0.1,0.1,0.2,0.1,0.3l-4.3,1.4c-0.4-1.1-1.5-1.8-2.7-1.7c-0.1,0-0.1,0-0.2,0.1l-1.2-5.1
			c1.9-0.6,3.2-2.4,3-4.4c-0.1-1.2-0.8-2.3-1.7-3l-0.4-0.3c-0.7-0.4-1.5-0.6-2.4-0.5c-2.3,0.2-4.1,2.2-3.9,4.6
			c-0.1,0.1-0.1,0.1,0,0.2l-9.9,1.9c-0.4-1.4-1.7-2.5-3.2-2.3C899.4,522.9,898.3,524.4,898.4,525.9z"/>
		
			<linearGradient id="SVGID_10_" gradientUnits="userSpaceOnUse" x1="2320.2102" y1="1112.5458" x2="2308.146" y2="1112.5458" gradientTransform="matrix(-0.9317 0.3633 -0.3633 -0.9317 3392.8013 731.3857)">
			<stop  offset="0" style="stop-color:#2A7FF8"/>
			<stop  offset="1" style="stop-color:#5F32C0"/>
		</linearGradient>
		<path class="st11" d="M825.6,535c0.2,1,0.9,1.6,1.9,1.6c1-0.2,1.6-0.9,1.6-1.9c0.1,0,0.1-0.1,0-0.2l2.9-0.9
			c0.5,1.2,1.5,1.9,2.7,1.9l0.2,2.7c-0.5,0.1-0.8,0.5-0.8,1c0,0.6,0.6,0.9,1.1,0.9c0.6,0,0.9-0.6,0.9-1.1c-0.1-0.5-0.4-0.9-1-0.9
			l-0.2-2.7c1.5-0.3,2.6-1.6,2.5-3.1c0-0.9-0.5-1.7-1.3-2.1l-0.3-0.1c-0.4-0.2-0.9-0.3-1.5-0.3c-1.5,0.1-2.7,1.5-2.6,3
			c0.1,0.2,0,0.3,0.1,0.5l-2.9,0.9c-0.2-0.6-1-1.1-1.7-1C826.4,533.2,825.7,534,825.6,535z"/>
		
			<linearGradient id="SVGID_11_" gradientUnits="userSpaceOnUse" x1="2569.4062" y1="1175.8397" x2="2539.2563" y2="1175.8397" gradientTransform="matrix(-0.9317 0.3633 -0.3633 -0.9317 3392.8013 731.3857)">
			<stop  offset="0" style="stop-color:#2A7FF8"/>
			<stop  offset="1" style="stop-color:#5F32C0"/>
		</linearGradient>
		<path class="st12" d="M571,560.5c-1.6,2.2-1.4,5.1,0.5,6.9c1.4,1.5,3.7,1.9,5.6,1.3l2.7,6.8c-0.5,0.2-0.9,0.4-1.2,0.8
			c-1.5,1.5-1.4,3.9,0,5.4s3.8,1.5,5.3,0c1.5-1.4,1.5-3.8,0-5.3c-1-1.1-2.5-1.3-3.8-0.9l-2.7-6.8c0.6-0.2,1.2-0.6,1.7-1.1
			c1.4-1.4,1.8-3.3,1.4-5.2l13.9-4c0.1,0.4,0.2,0.6,0.6,0.9c1,1.1,2.6,1.1,3.6,0.1c1.1-1,1.1-2.6,0.1-3.6c-1-1.1-2.6-1.1-3.6-0.1
			c-0.6,0.6-0.9,1.6-0.7,2.4l-13.9,4c-0.2-0.9-0.7-1.5-1.3-2.1c-0.8-0.7-1.7-1.2-2.8-1.4l0.9-4.9c0.1,0,0.2,0,0.3,0
			c1-0.1,1.8-0.9,1.7-1.9c-0.1-1-0.9-1.8-1.9-1.7c-1,0.1-1.8,0.9-1.7,1.9c0,0.8,0.5,1.4,1.3,1.6l-0.9,4.9c-1.6-0.2-3.2,0.3-4.4,1.5
			c-0.2,0.1-0.2,0.2-0.4,0.4L571,560.5z"/>
		
			<linearGradient id="SVGID_12_" gradientUnits="userSpaceOnUse" x1="2403.3955" y1="1266.3295" x2="2373.6536" y2="1266.3295" gradientTransform="matrix(-0.9317 0.3633 -0.3633 -0.9317 3392.8013 731.3857)">
			<stop  offset="0" style="stop-color:#2A7FF8"/>
			<stop  offset="1" style="stop-color:#5F32C0"/>
		</linearGradient>
		<path class="st13" d="M696.7,432.3c1.2,1.2,3.1,1.2,4.3,0s1.2-3.1,0-4.3c-0.3-0.3-0.7-0.6-1.1-0.7l2.9-10.5c1,0.2,2.2,0,3-0.9
			c0.2-0.2,0.4-0.5,0.6-0.7l11,5.2c-0.5,1.2-0.2,2.6,0.8,3.6c1.4,1.4,3.5,1.4,4.7,0c1.4-1.4,1.4-3.5,0-4.7c-1.4-1.4-3.5-1.4-4.7,0
			c-0.2,0.2-0.4,0.5-0.6,0.7l-11-5.2c0.5-1.2,0.2-2.6-0.8-3.6c-0.2-0.2-0.6-0.4-0.9-0.6l-0.4-0.2c-1.2-0.4-2.5-0.1-3.5,0.8
			c-0.5,0.5-0.8,1.2-0.9,1.9l0,0.4c0,0.7,0.3,1.7,1,2.2c0.4,0.4,0.8,0.6,1.2,0.8l-2.9,10.5c-1-0.2-2.1,0.1-2.8,0.8
			C695.5,429.1,695.5,431,696.7,432.3z"/>
		
			<linearGradient id="SVGID_13_" gradientUnits="userSpaceOnUse" x1="2616.8682" y1="1285.095" x2="2548.7024" y2="1285.095" gradientTransform="matrix(-0.9317 0.3633 -0.3633 -0.9317 3392.8013 731.3857)">
			<stop  offset="0" style="stop-color:#2A7FF8"/>
			<stop  offset="1" style="stop-color:#5F32C0"/>
		</linearGradient>
		<path class="st14" d="M489.4,483.8c0.9-0.2,1.5-0.9,1.6-1.8l24.8,0.3c0,0.1,0,0.3,0.1,0.4c0.3,1.6,1.9,2.5,3.5,2.2
			c1.6-0.3,2.6-2,2.2-3.5c-0.2-0.9-0.8-1.6-1.5-1.9l7.3-16.7c0.6,0.2,1,0.2,1.6,0.1c1-0.2,1.7-0.8,2.1-1.7l15,5.2
			c-0.1,0.6-0.2,1.1,0,1.8c0.4,2.1,2.5,3.5,4.6,3c1-0.2,1.8-0.8,2.3-1.5l0.3-0.4c0.4-0.8,0.6-1.7,0.4-2.7c-0.2-0.5-0.4-0.9-0.6-1.3
			l-0.4-0.4c-0.9-1-2.3-1.6-3.8-1.3c-1.3,0.3-2.3,1.2-2.8,2.3l-15-5.2c0-0.4,0.1-0.9,0-1.4c-0.3-1.6-1.9-2.5-3.5-2.2
			c-1.7,0.3-2.6,2-2.3,3.5c0.2,0.9,0.8,1.6,1.5,1.9l-7.3,16.7c-0.5-0.2-1-0.2-1.6-0.1c-1.3,0.3-2.1,1.3-2.3,2.6l-24.8-0.3
			c0.1-0.1,0.1-0.1,0-0.2c-0.2-1.2-1.4-1.9-2.5-1.6c-1.2,0.2-1.9,1.4-1.6,2.5C487,483.3,488.2,484,489.4,483.8z"/>
		
			<linearGradient id="SVGID_14_" gradientUnits="userSpaceOnUse" x1="2396.8882" y1="1139.774" x2="2374.041" y2="1139.774" gradientTransform="matrix(-0.9317 0.3633 -0.3633 -0.9317 3392.8013 731.3857)">
			<stop  offset="0" style="stop-color:#2A7FF8"/>
			<stop  offset="1" style="stop-color:#5F32C0"/>
		</linearGradient>
		<path class="st15" d="M770.1,543.4c0-1.6-1.3-3-2.9-3c-0.3,0-0.6,0-0.9,0.1l-6-17.1c1.1-0.4,1.8-1.5,1.9-2.7c0-1.6-1.3-3-2.9-3
			c-1.6,0-3,1.3-3,2.9c0,1.6,1.3,3,2.9,3c0.3,0,0.6,0,0.9-0.1l6,17.1c-1.1,0.4-1.8,1.5-1.9,2.7c0,0.4,0.1,0.9,0.3,1.3l-7.1,3.8
			c-0.7-1.3-2.1-2-3.5-2.1c-0.7-0.1-1.3,0.1-1.8,0.4l-0.3,0.1c-1.3,0.7-2,2.1-2.1,3.5c0,0.3,0,0.5,0.1,0.8l0.1,0.3
			c0.5,1.7,2,3,3.9,3c1.1,0,2.1-0.4,2.8-1.1l0.2-0.2c0.7-0.7,1.1-1.7,1.1-2.8c0.1-0.7-0.1-1.3-0.4-1.8l7.1-3.8
			c0.5,0.8,1.5,1.4,2.6,1.4C768.8,546.2,770.1,544.8,770.1,543.4z"/>
		
			<linearGradient id="SVGID_15_" gradientUnits="userSpaceOnUse" x1="2244.2419" y1="1143.314" x2="2232.0022" y2="1143.314" gradientTransform="matrix(-0.9317 0.3633 -0.3633 -0.9317 3392.8013 731.3857)">
			<stop  offset="0" style="stop-color:#2A7FF8"/>
			<stop  offset="1" style="stop-color:#5F32C0"/>
		</linearGradient>
		<path class="st16" d="M889.5,487.9c1.8,1.8,4.7,1.8,6.5,0.1c0.1-0.2,0.3-0.4,0.4-0.6l0.3-0.4c1-1.8,0.9-4-0.7-5.5
			c-0.8-0.7-1.8-1.2-2.8-1.3l0.3-7.1c1.1-0.1,2-1.2,1.8-2.3c-0.1-1.2-1.1-2.1-2.2-2c-1.2,0.1-2.1,1.1-2,2.2c0,0.9,0.8,1.7,1.7,1.9
			l-0.3,7.1c-1.1,0-2.2,0.5-3.2,1.3C887.7,483.2,887.7,486.2,889.5,487.9z"/>
		
			<linearGradient id="SVGID_16_" gradientUnits="userSpaceOnUse" x1="2141.5017" y1="1095.9818" x2="2116.3149" y2="1095.9818" gradientTransform="matrix(-0.9317 0.3633 -0.3633 -0.9317 3392.8013 731.3857)">
			<stop  offset="0" style="stop-color:#2A7FF8"/>
			<stop  offset="1" style="stop-color:#5F32C0"/>
		</linearGradient>
		<path class="st17" d="M1014.7,475.1c-1.5-0.4-3.1,0.3-3.7,1.9c-0.2,0.5-0.2,1.1-0.1,1.6l-6.3,2.1c-0.4-1.1-1.3-1.9-2.4-2.3
			c-1.5-0.5-3.1-0.1-4.1,1.1l-0.2,0.3c-0.2,0.3-0.4,0.7-0.5,1c-0.7,2,0.4,4.3,2.4,4.9c2,0.7,4.3-0.4,4.9-2.4
			c0.2-0.7,0.3-1.5,0.1-2.2l6.3-2.1c0.4,0.7,0.9,1.3,1.8,1.6c1.1,0.4,2.1,0.1,2.9-0.6l6,5.6c-0.1,0.3-0.3,0.4-0.4,0.7
			c-0.4,1.1,0.3,2.3,1.4,2.7c1.1,0.3,2.2-0.2,2.7-1.2l0.2-0.4c0.2-1-0.3-2.2-1.4-2.5c-0.8-0.3-1.6-0.1-2.1,0.4l-6-5.6
			c0.2-0.3,0.4-0.6,0.5-0.9C1017.1,477.1,1016.3,475.5,1014.7,475.1z"/>
		
			<linearGradient id="SVGID_17_" gradientUnits="userSpaceOnUse" x1="2171.387" y1="1105.2516" x2="2151.9187" y2="1105.2516" gradientTransform="matrix(-0.9317 0.3633 -0.3633 -0.9317 3392.8013 731.3857)">
			<stop  offset="0" style="stop-color:#2A7FF8"/>
			<stop  offset="1" style="stop-color:#5F32C0"/>
		</linearGradient>
		<path class="st18" d="M969.6,490.8c-0.5,1-0.5,2.2,0.1,3.2c0.9,1.5,2.9,2,4.4,1.1s2-2.9,1.1-4.4c-0.2-0.2-0.4-0.4-0.6-0.6l6.6-7.5
			c0.8,0.6,1.9,0.7,2.7,0.2c0.5-0.3,0.8-0.7,1-1.2l0.1-0.3c0.2-0.6,0.1-1.2-0.3-1.8c-0.8-1.2-2.2-1.4-3.4-0.8
			c-1.2,0.8-1.4,2.2-0.8,3.4c0.2,0.1,0.2,0.3,0.4,0.5l-6.6,7.5c-1-0.9-2.5-1-3.7-0.2c-0.5,0.3-0.8,0.6-1.1,1L969.6,490.8z"/>
	</g>
	<g>
		
			<linearGradient id="_x5F_x3C_x5F__xA0_ÓÌÚÛ_xF8FF__x5F_x3E_x5F__x5F_1_x5F__3_" gradientUnits="userSpaceOnUse" x1="1566.9323" y1="760.7913" x2="2007.6812" y2="760.7913" gradientTransform="matrix(0.9317 -0.3633 0.3633 0.9317 -152.1628 408.0607)">
			<stop  offset="0" style="stop-color:#2A7FF8"/>
			<stop  offset="1" style="stop-color:#5F32C0"/>
		</linearGradient>
		<path id="_x5F_x3C_x5F__xA0_ÓÌÚÛ_xF8FF__x5F_x3E_x5F__x5F_1_x5F__1_" class="st19" d="M2005,414.6c-0.1-3.1-2.7-5.7-6-5.6
			c-1.7,0-3.1,0.8-4.1,1.9l-9.6-5.6c0.4-1,0.5-2,0.5-3c0-1.5-0.4-2.8-1.2-3.9l-0.5-0.7c-1.5-1.9-3.9-3-6.6-2.9
			c-3.9,0.2-7.1,3.2-7.7,6.9l-22.5,0.6c-0.9-2.8-3.7-5.1-6.8-5c-1.3,0-2.6,0.4-3.6,1.1l-12.6-12.3c0.5-0.7,0.8-1.6,0.7-2.5
			c0-1.1-0.5-2-1.2-2.7l7.2-8.7c0.5,0.3,1.1,0.5,1.8,0.5c1.8-0.1,3.1-1.5,3-3.3c-0.1-1.8-1.5-3.1-3.3-3c-1.8,0.1-3.1,1.5-3,3.3
			c0,0.8,0.3,1.5,0.8,2l-7.3,8.6c-0.7-0.5-1.6-0.8-2.5-0.7c-0.2,0-0.5,0-0.8,0.1l-14.9-37.8c0.7-0.5,1-1.2,1-2.1
			c0-1.4-1.1-2.4-2.5-2.3c-1.4,0-2.4,1.1-2.3,2.5c0,1.4,1.1,2.4,2.5,2.3c0.2-0.1,0.3,0,0.5-0.1l14.8,37.7c-1.5,0.7-2.4,2.2-2.4,3.9
			c0,0.3,0,0.5,0.1,0.8l-13.4,4.6c-0.5-1.1-1.7-1.9-3-1.8c-1.8,0.1-3.2,1.6-3.1,3.3s1.6,3.2,3.3,3.1c1.8-0.1,3.2-1.6,3.1-3.3
			c-0.1-0.2,0-0.3-0.1-0.5l13.4-4.6c0.8,1.4,2.2,2.4,4,2.3c1-0.1,2-0.5,2.7-1.2l12.5,12.1c-1.4,1.4-2.2,3.2-2.2,5.3
			c0.1,1.5,0.6,2.9,1.4,4l-19.3,17.4c-0.6-0.5-1.3-0.7-2.2-0.7c-1.8,0.1-3.2,1.6-3.1,3.3s1.6,3.2,3.3,3.1c1.8-0.1,3.2-1.6,3.1-3.3
			c0-0.6-0.2-1.2-0.5-1.7l19.3-17.4c1.3,1.2,3.1,2,4.9,1.9c3.7-0.2,6.6-3.1,6.5-6.8c-0.1-0.3-0.1-0.6-0.1-0.6l22.4-0.8
			c0-0.1,0,0.3,0,0.5c0.1,3.1,2,5.7,4.7,7l-9.9,25.7c-0.5-0.2-1.1-0.3-1.7-0.3c-3,0.1-5.3,2.6-5.2,5.6c0.1,2.5,1.8,4.4,4.1,5
			l-5.3,30.4c-0.4,0-0.9-0.1-1.3,0c-2.7,0.1-5.1,1.6-6.5,3.6l-19.7-12.6c0.6-1,0.9-2.1,0.8-3.3c-0.1-3.3-2.9-5.8-6.2-5.7
			c-3.2,0.1-5.8,3.3-5.7,6l-17.3,0.7c-0.4-5.5-4.7-9.2-9.9-9c-1.5,0-2.9,0.4-4.1,1.1l-10.3-17.6c1.7-1.1,2.7-3,2.6-5.1
			c-0.1-3.3-2.9-5.9-6.2-5.8c-3.3,0.1-5.9,2.9-5.8,6.2s2.9,5.9,6.2,5.8c0.8,0,1.7-0.2,2.4-0.6l10.3,17.6c-2.1,1.3-3.6,3.5-4.1,5.9
			l-52.2-9.6c0-0.2,0-0.3,0-0.5c-0.1-2.4-2.1-4.3-4.6-4.2c-0.8,0.1-1.6,0.3-2.2,0.8l-13.4-16.7c1.9-1.7,3.1-4,3-6.8l5.5-0.4
			c0.3,2.2,2.2,3.8,4.5,3.7c2.4-0.1,4.3-2.1,4.2-4.6c-0.1-1.8-1.1-3.1-2.5-3.8l5.2-15c0.4,0.2,0.7,0.2,1.1,0.2c1.7,0,3.1-1,3.8-2.4
			l11.9,4.5c0,0.2-0.1,0.6-0.1,0.9c0.1,1.9,1.8,3.4,3.6,3.3c1.9-0.1,3.4-1.8,3.3-3.6c-0.1-1.9-1.8-3.4-3.6-3.3
			c-1.3,0-2.4,0.7-2.9,1.8l-11.9-4.5c0-0.4,0.1-0.9,0.1-1.3c-0.1-1.2-0.6-2.4-1.6-3.2l4.6-6.6c0.5,0.3,1,0.4,1.6,0.4
			c1.9,0,3.4-1.6,3.3-3.5c0-1.9-1.6-3.4-3.5-3.3c-0.5,0-1.1,0.2-1.6,0.5l-9.7-12c0.6-0.6,0.9-1.4,0.9-2.3c0-0.9-0.3-1.7-1-2.2
			l5.7-8.1c0.4,0.3,1,0.4,1.5,0.4c1.8-0.1,3.2-1.6,3.1-3.3s-1.6-3.2-3.3-3.1c-1.8,0.1-3.2,1.6-3.1,3.3c0,0.9,0.4,1.7,1,2.2l-5.7,8.1
			c-0.4-0.3-1-0.4-1.5-0.4c-1.8,0.1-3.2,1.6-3.1,3.3s1.6,3.2,3.3,3.1c0.5,0,1.1-0.2,1.5-0.5l9.7,12c-0.6,0.6-1,1.5-0.9,2.5
			c0,0.9,0.5,1.8,1.1,2.4l-4.6,6.6c-0.7-0.4-1.5-0.6-2.3-0.6c-2.4,0.1-4.3,2.1-4.2,4.6c0.1,1.8,1.1,3.1,2.5,3.8l-5.2,15
			c-0.3-0.1-0.7-0.2-1.1-0.1c-2.3,0.1-4.2,1.9-4.3,4.2l-5.5,0.4c-0.5-4.5-4.5-8-9.2-7.9c-0.7,0-1.4,0.1-2.1,0.3l-9-26.5
			c1.6-0.7,2.7-2.3,2.6-4.2c-0.1-2.4-2.1-4.3-4.6-4.2c-2.5,0.1-4.4,2.1-4.3,4.6c0.1,2.4,2.1,4.3,4.6,4.2c0.3,0,0.5,0,0.8-0.1l9,26.5
			c-2.9,1.2-5.1,4-5.5,7.2l-39.2-3l0,0c-0.1-2.5-2.1-4.4-4.6-4.3c-2.5,0.1-4.4,2.1-4.3,4.6c0.1,0.4,0.1,0.8,0.3,1.3l-24.1,11.6
			c-1.3-2.3-3.8-3.9-6.7-3.8c-1.4,0-2.5,0.5-3.7,1.1l-7.7-10.6c1.2-1,1.9-2.5,1.8-4.2c-0.1-1.9-1-3.5-2.5-4.4l5.9-11.8
			c0.6,0.2,1.4,0.3,2.1,0.3c2.6-0.2,4.6-2,5-4.4l6.4,0.6c0.1,1.9,1.8,3.4,3.6,3.3c1.9-0.1,3.4-1.8,3.3-3.6s-1.7-3.3-3.6-3.2
			c-1.5,0.1-2.8,1.2-3.2,2.6l-6.4-0.6c0,0,0.1-0.1,0-0.2c-0.1-2.5-1.9-4.5-4.2-5l1.1-7.5c0,0,0.1,0.1,0.2,0c2.2,0,4-2,3.9-4.1
			c0-0.1,0-0.1-0.1-0.2l31.3-6.5c0.5,1.8,2.2,3,4.2,3c2.4-0.1,4.2-2.1,4.1-4.5c0-0.8-0.3-1.5-0.6-2.1l19.2-14.2
			c0.6,0.6,1.6,1.1,2.6,1c1.9-0.1,3.4-1.8,3.3-3.6c-0.1-1.9-1.8-3.4-3.6-3.3c-1.9,0.1-3.4,1.8-3.3,3.6c0.1,0.5,0.2,1.1,0.5,1.5
			l-19.2,14.2c-0.9-0.9-2.1-1.5-3.4-1.4c-2.4,0.1-4.2,2.1-4.1,4.5c-0.1,0.1,0,0.2,0,0.3l-31.3,6.5c-0.5-1.7-2.1-2.9-3.9-2.8
			c-2.2,0-4,2-3.9,4.1c0.1,1.9,1.4,3.3,3,3.8l-1.1,7.5c-0.2,0-0.3,0-0.5,0c-1.5,0-2.8,0.8-3.7,1.8l-15.5-11.7
			c0.4-0.7,0.5-1.4,0.5-2.1c-0.1-2.1-1.9-3.7-3.9-3.6c-2.2,0.1-3.8,1.9-3.7,4c0.1,2.2,1.9,3.8,4,3.7c1.1,0,1.9-0.4,2.6-1.1
			l15.5,11.7c-0.5,0.8-0.8,1.9-0.8,3c0.1,1.9,1,3.5,2.5,4.4l-5.9,11.8c-0.6-0.3-1.4-0.4-2.2-0.4c-2.7,0.1-4.9,2.1-5.1,4.6l0,1
			c0.2,2.9,2.6,5.1,5.5,5c0.9,0,1.8-0.3,2.5-0.8l7.7,10.6c-1.8,1.4-2.8,3.6-2.7,6c0.1,1.9,0.8,3.5,1.9,4.7l-11.8,12.1
			c-1.2-0.8-2.6-1.4-4.1-1.3c-3.3,0.1-5.9,2.9-5.8,6.2c0.1,1.9,0.9,3.4,2.3,4.5l-19.8,29c-1.2-0.7-2.7-1.2-4.2-1.1
			c-0.5,0-1.1,0.1-1.6,0.2l-4.8-13.8c1.2-0.6,1.9-1.8,1.9-3.2c0-1.9-1.6-3.4-3.5-3.3c-1.9,0-3.4,1.6-3.3,3.5c0,1.9,1.6,3.4,3.5,3.3
			c0.2-0.1,0.3,0,0.5-0.1l4.7,13.8c-2.9,1.1-4.9,4-4.8,7.3c0,0.2,0,0.4,0,0.6l-11.2,2c-0.6-2.3-2.8-4-5.3-3.9
			c-2.9,0.1-5.2,2.6-5.1,5.5c0,0.3,0,0.5,0.1,0.7l-21.4,5.5c-0.6-1.6-1.9-2.8-3.6-3.3l2.5-13.3c0.2,0,0.4,0,0.7,0.1
			c2.7-0.1,4.9-2.4,4.8-5.2c-0.1-2.8-2.5-5-5.3-4.9c-2.8,0.1-5,2.5-4.9,5.3c0.1,2.3,1.6,4.1,3.6,4.7l-2.5,13.3c-0.2,0-0.5,0-0.7,0
			c-2.1,0.1-3.9,1.3-4.7,3.1l-30.2-10.7c0.2-0.4,0.2-0.8,0.2-1.3c-0.1-2.7-2.4-4.8-5.1-4.7c-2.7,0.1-4.8,2.4-4.7,5.1
			c0.1,2.7,2.4,4.8,5.1,4.7c1.9,0,3.5-1.2,4.3-2.8l30.2,10.7c-0.1,0.5-0.1,1-0.1,1.5c0,1.9,1,3.5,2.5,4.4l-16.6,34
			c-0.4-0.2-0.8-0.2-1.3-0.2c-2,0.2-3.7,1.9-3.6,3.9c0.2,2,1.9,3.7,3.9,3.6c2.1-0.1,3.7-1.9,3.6-3.9c-0.1-1.2-0.7-2.4-1.7-3
			l16.6-33.9c0.6,0.3,1.4,0.3,2.1,0.3c0.7,0,1.4-0.2,2-0.5l7.4,13.1c-1,0.7-1.6,1.9-1.5,3.1c0.1,2.1,1.8,3.7,3.8,3.7
			c2.1-0.1,3.7-1.9,3.6-3.9c-0.1-2.1-1.9-3.7-3.9-3.6c-0.4,0-0.9,0.1-1.3,0.3l-7.4-13.1c1.5-1,2.4-2.7,2.3-4.6c0-0.3,0-0.5-0.1-0.7
			l21.4-5.5c0.7,2.1,2.8,3.6,5.2,3.6c2.9-0.1,5.2-2.6,5.1-5.5c0.1,0,0.1-0.1,0-0.2l11.2-2c0.8,3.5,3.9,6,7.6,5.8c0.1,0,0.2,0,0.3,0
			l4,32.7c-0.8,0.2-1.3,0.6-1.9,1.1l-9.1-6.4c0.3-0.5,0.5-1.1,0.4-1.9c-0.1-2.1-1.9-3.7-3.9-3.6c-2,0.2-3.7,1.9-3.6,3.9
			c0.1,2.1,1.9,3.7,3.9,3.6c1.1-0.1,2-0.6,2.7-1.2l9.1,6.4c-0.3,0.5-0.5,1.1-0.4,1.9c0,0.5,0.2,1,0.3,1.3l-35.1,20.3
			c-0.7-1-1.9-1.6-3.1-1.5c-2,0.2-3.7,1.9-3.6,3.9c0.1,2.1,1.8,3.7,3.8,3.7c2.1-0.1,3.7-1.9,3.6-3.9c0-0.5-0.1-0.9-0.3-1.3
			l35.1-20.3c0.7,1,1.9,1.6,3.1,1.5c0.3,0,0.7-0.1,1-0.2l3.7,7.9c-0.9,0.6-1.5,1.6-1.4,2.8c0.1,1.8,1.5,3.1,3.3,3
			c1.8-0.1,3.1-1.5,3-3.3s-1.5-3.1-3.3-3c-0.3,0-0.5,0-0.8,0.1l-3.7-7.9c1.1-0.7,1.8-1.9,1.8-3.3c0-2-1.7-3.6-3.7-3.6l-4.1-32.8
			c2.9-0.6,5.2-2.8,5.9-5.6l14.9,2.9c0,0.2-0.1,0.3,0,0.4c0.1,2.1,1.9,3.7,3.9,3.6s3.7-1.9,3.6-3.9c-0.1-2.1-1.9-3.7-3.9-3.6
			c-1.6,0.1-2.9,1.1-3.4,2.6l-14.9-2.9c0-0.4,0.1-0.9,0-1.3c-0.1-2.4-1.2-4.4-2.9-5.7l19.8-29c1,0.6,2.1,0.9,3.3,0.8
			c3.3-0.1,5.9-2.9,5.8-6.2c0-1.5-0.5-2.7-1.5-3.7l11.8-12.1c1.2,0.9,2.6,1.6,4.2,1.7l-0.7,46.4c-2.3,0.2-4.1,2.1-4,4.5
			c0.1,2.4,2.1,4.3,4.6,4.2c1.1,0,1.9-0.3,2.6-0.9l16.1,16.7c-1,1.1-1.6,2.5-1.5,4.2c-0.1,0.1,0,0.2,0,0.3l-12.7,2
			c-0.4-1.6-1.9-2.7-3.7-2.7c-2,0.2-3.7,1.9-3.6,3.9c0.1,2.1,1.9,3.7,3.9,3.6c2-0.2,3.7-1.9,3.6-3.9l12.6-2.1
			c0.7,2.6,2.9,4.4,5.5,4.6l0.3,29.3c-2.1,0.3-3.6,2-3.5,4.1c0,2.2,2,4,4.1,3.9c2.2,0,4-2,3.9-4.1c-0.1-2.1-1.6-3.7-3.6-3.8
			l-0.3-29.4c2.6-0.3,4.7-2.2,5.3-4.6l13.5,2.2c0,0.2-0.1,0.3,0,0.4c0.1,2.5,2.1,4.4,4.6,4.3c2.4-0.1,4.3-2.1,4.2-4.6
			c-0.1-2.4-2.1-4.3-4.6-4.2c-2,0-3.6,1.4-4.1,3.3l-13.4-2.1c0-0.2,0-0.5,0-0.7c-0.1-1.9-1-3.4-2.3-4.5l6.3-9.2
			c0.7,0.4,1.4,0.5,2.2,0.5c2.3-0.1,4.1-2,4.1-4.4c0-0.8-0.3-1.6-0.8-2.2l14-12.2c0.6,0.6,1.4,0.9,2.3,0.9c1-0.1,2-0.6,2.6-1.4
			l38.1,20.3c-0.3,0.5-0.5,1.2-0.4,1.9c0.1,1,0.4,1.9,0.9,2.7l-17.9,16.1c-0.6-0.4-1.2-0.7-2-0.7c-1.7,0-3,1.5-3,3.2
			c0,1.7,1.5,3,3.2,3s3-1.5,3-3.2c0-0.6-0.2-1.2-0.5-1.6l17.9-16.1c0.9,0.8,2.1,1.3,3.4,1.2c0.7,0.1,1.3-0.2,1.8-0.4l5.4,9
			c-1.4,0.8-2.1,2.4-2.1,4.1c0.1,2.7,2.3,4.7,4.9,4.6c2.7-0.1,4.7-2.3,4.6-4.9c0-0.3,0-0.5-0.1-0.7l32.7-7.1c0.7,2,2,3.4,3.8,4.2
			l-11.8,37.6c-0.5-0.1-1-0.1-1.5-0.1c-3.2,0.1-5.7,2.7-5.6,6c0.1,3.2,2.7,5.7,6,5.6s5.7-2.7,5.6-6c-0.1-2.4-1.6-4.3-3.6-5.2
			l11.8-37.6c0.6,0.1,1.1,0.2,1.7,0.2c1.6-0.1,3.1-0.7,4.2-1.7l7.6,7c-0.8,0.9-1.3,2.2-1.2,3.5c0.1,3,2.7,5.3,5.6,5.2
			c3-0.1,5.3-2.6,5.2-5.6c-0.1-3-2.6-5.3-5.6-5.2c-1.2,0.1-2.4,0.6-3.3,1.4l-7.6-7c0.9-1.1,1.5-2.7,1.4-4.2
			c-0.2-3.4-2.9-6.1-6.4-6.1l-0.8-11.2c3.3-0.4,5.7-3.3,5.5-6.6c-0.1-1.8-0.8-3.3-1.9-4.4l13.2-16.4c1.6,1.3,3.7,1.9,5.9,1.8
			c2.7-0.1,5-1.2,6.7-3l8.4,7c-0.5,0.7-0.8,1.6-0.7,2.5c0.1,2.3,2,4.1,4.3,4c2.3-0.1,4.1-2,4-4.3c-0.1-2.3-2-4.1-4.3-4
			c-1.1,0-2,0.5-2.7,1.2l-8.4-6.9c1.2-1.5,1.9-3.6,2-5.4l17.4-0.7c0.4,2.8,3.1,5.1,6.1,5c1.8-0.1,3.3-1,4.4-2.2l19.8,12.6
			c-0.6,1.3-1,2.7-1,4.3c0,1.4,0.4,2.6,1,3.7l-32.8,20.8c-1.1-1.4-2.8-2.3-4.6-2.2c-3.1,0.1-5.6,2.7-5.4,5.8
			c0.1,3.1,2.7,5.6,5.8,5.4c3.1-0.1,5.6-2.7,5.4-5.8c0-0.8-0.2-1.7-0.6-2.4l32.8-20.8c1.6,2.2,4.1,3.5,7,3.5c1.5,0,2.7-0.5,3.9-1.2
			l8.3,12c-1.2,1.1-2.1,2.7-2,4.6c0.2,3.1,2.8,5.5,5.9,5.5c3.1-0.2,5.5-2.8,5.5-5.9c-0.1-3.1-2.8-5.5-5.9-5.5c-1,0.1-2,0.3-2.7,0.8
			l-8.3-12c2-1.5,3.4-4,3.2-6.8c-0.1-3.7-2.8-6.9-6.4-7.7l5.3-30.4c0.2,0,0.4,0,0.7,0.1c1.4,0,2.5-0.6,3.4-1.3l10.7,10.3
			c-0.4,0.6-0.6,1.3-0.6,2c0.1,1.8,1.6,3.2,3.3,3.1c1.8-0.1,3.2-1.6,3.1-3.3c0-1.8-1.6-3.2-3.3-3.1c-0.7,0.1-1.3,0.3-1.8,0.7
			l-10.5-10.1c0.8-1,1.2-2.3,1.2-3.6c-0.1-2.1-1.4-3.8-3.1-4.7l9.9-25.8c0.9,0.3,1.9,0.4,2.8,0.4c3.1-0.2,5.7-1.9,7-4.5l9.5,5.4
			c-0.6,0.9-1,2.1-0.9,3.3c0.2,3.1,2.8,5.6,6,5.5C2002.8,420.6,2005.2,417.9,2005,414.6z M1884.7,473.4l-13.3,16.3
			c-1.1-0.8-2.5-1.2-3.9-1.2c-3.5,0.1-6.3,3.1-6.1,6.6c0.2,3.4,2.9,6.1,6.4,6.1l0.8,11.2c-3.3,0.4-5.7,3.3-5.5,6.6
			c0,0.2,0,0.4,0,0.6l-32.8,7.1c-0.7-1.8-2.5-3.1-4.6-3.1c-0.6,0-1.2,0.2-1.7,0.4l-5.4-9.1c1.2-0.9,2-2.4,1.9-4
			c-0.1-0.5-0.1-0.9-0.3-1.3l11.8-5c0.5,0.7,1.5,1.3,2.5,1.2c1.5-0.1,2.7-1.4,2.6-2.9c0-1.5-1.4-2.7-2.9-2.6c-1.5,0-2.7,1.4-2.6,2.9
			c0,0.1,0,0.3,0.1,0.5l-11.8,5c-0.8-1.5-2.4-2.4-4.2-2.5l-2-17.7c1.4-0.4,2.5-1.7,2.4-3.3c-0.1-1.8-1.6-3.2-3.3-3.1
			c-1.8,0.1-3.2,1.6-3.1,3.3c0.1,1.6,1.5,3,3.2,3.1l2,17.7c-1.3,0.3-2.3,1-3,2l-38.1-20.3c0.1-0.5,0.2-0.9,0.2-1.3
			c0-1.9-1.6-3.4-3.5-3.3c-1.9,0-3.4,1.6-3.3,3.5c0.1,0.7,0.3,1.3,0.6,1.8l-14,12.2c-0.8-0.7-1.9-1.1-3.1-1.1
			c-2.3,0.1-4.1,2-4.1,4.4c0.1,1.2,0.6,2.4,1.5,3.1l-6.3,9.2c-1-0.6-2.1-0.9-3.3-0.8c-1.3,0.1-2.6,0.6-3.6,1.4l-16.1-16.7
			c0.6-0.9,1.1-1.9,1-3c-0.1-2.3-1.8-4-3.9-4.3l0.7-46.4c2.5-0.1,4.7-1.5,5.9-3.5l14,7.5c-0.2,0.5-0.4,1.2-0.3,1.8
			c0.1,2.4,2.1,4.3,4.6,4.2c2.4-0.1,4.3-2.1,4.2-4.6c-0.1-2.4-2.1-4.3-4.6-4.2c-1.5,0-2.8,0.8-3.5,1.9l-14-7.5
			c0.4-1,0.8-2.1,0.7-3.3c0-0.9-0.2-1.7-0.6-2.5l24.1-11.6c0.8,1.4,2.2,2.2,3.9,2.2c2.1-0.1,3.8-1.6,4.2-3.6l39.2,3
			c0,0.2,0,0.3,0,0.5c0.1,3,1.8,5.7,4.2,7.2l-6.5,11.7c-0.6-0.3-1.3-0.4-1.9-0.4c-2.4,0.1-4.3,2.1-4.2,4.6c0.1,2.4,2.1,4.3,4.6,4.2
			c2.4-0.1,4.3-2.1,4.2-4.6c0-1.5-0.8-2.7-1.9-3.5l6.5-11.7c1.3,0.6,2.7,1,4.3,1c1.8-0.1,3.4-0.7,4.8-1.7l13.4,16.7
			c-0.8,0.8-1.4,2.1-1.3,3.4c0.1,2.5,2.1,4.4,4.6,4.3c1.9,0,3.5-1.4,4-3.1l52.2,9.6c0,0.4,0,1,0,1.5
			C1881.4,468.9,1882.7,471.3,1884.7,473.4z"/>
		
			<linearGradient id="SVGID_18_" gradientUnits="userSpaceOnUse" x1="1263.6963" y1="697.1463" x2="1302.8947" y2="697.1463" gradientTransform="matrix(-0.9317 0.3633 -0.3633 -0.9317 3392.8013 731.3857)">
			<stop  offset="0" style="stop-color:#2A7FF8"/>
			<stop  offset="1" style="stop-color:#5F32C0"/>
		</linearGradient>
		<path class="st20" d="M1958.1,549.8l-4.6,0.3c-0.4-3.8-3.8-6.7-7.6-6.6c-0.5,0-1.1,0.1-1.7,0.2l-7.4-22c1.3-0.6,2.2-1.9,2.1-3.5
			c-0.1-2.1-1.7-3.6-3.8-3.6c-2.1,0.1-3.6,1.8-3.6,3.8c0.1,2.1,1.7,3.6,3.8,3.6c0.3,0,0.5,0,0.7-0.1l7.4,22c-2.5,1-4.3,3.3-4.6,5.9
			l0,0.7c-0.1,0.1,0,0.3,0,0.4c0.2,2.6,1.5,4.8,3.5,6l-5.4,9.7c-0.5-0.2-1.1-0.3-1.6-0.3c-2.1,0.1-3.6,1.7-3.6,3.8
			c0.1,2.1,1.7,3.6,3.8,3.6c2.1-0.1,3.6-1.7,3.6-3.8c-0.1-1.2-0.7-2.3-1.5-2.9l5.4-9.7c1,0.5,2.3,0.8,3.5,0.7c1.5,0,2.9-0.5,4-1.3
			l11.1,13.9c-0.8,0.7-1.1,1.7-1.1,2.8c0.1,2.1,1.8,3.6,3.8,3.6c1.6-0.1,2.9-1.2,3.4-2.7l0.1-0.8c0.1-0.1,0.1-0.3,0-0.4
			c-0.1-2.1-1.7-3.6-3.8-3.6c-0.7,0.1-1.3,0.3-1.9,0.6l-11.1-13.9c1.5-1.3,2.5-3.4,2.4-5.6l4.6-0.3c0.3,1.8,1.9,3.2,3.7,3.1
			c2.1-0.1,3.6-1.7,3.6-3.8c0-1.5-0.9-2.6-2.1-3.2l-0.7-0.2c-0.3-0.1-0.7-0.2-1-0.1C1959.7,546.3,1958.1,547.9,1958.1,549.8z"/>
		
			<linearGradient id="SVGID_19_" gradientUnits="userSpaceOnUse" x1="1477.3521" y1="922.0789" x2="1550.9045" y2="922.0789" gradientTransform="matrix(-0.9317 0.3633 -0.3633 -0.9317 3392.8013 731.3857)">
			<stop  offset="0" style="stop-color:#2A7FF8"/>
			<stop  offset="1" style="stop-color:#5F32C0"/>
		</linearGradient>
		<path class="st21" d="M1631.5,482c1.5,1.1,3.6,0.9,4.8-0.6c1.1-1.5,0.9-3.6-0.6-4.8c-0.5-0.3-1-0.6-1.4-0.7l1.5-23.9
			c1.2-0.1,2.4-0.6,3.2-1.7c1.5-2,1.1-4.6-0.7-6.1c-0.1-0.1-0.1-0.1-0.3-0.1l15.2-28.2c1.6,0.6,3.5,0.2,4.6-1.3
			c1.3-1.7,1.1-4.2-0.7-5.6c-1.4-1.1-3.4-1.1-4.8-0.1l-5-5.6c0.1,0,0.2-0.2,0.3-0.3c0.9-1.2,1.3-2.6,1.1-4l18.9-4.2
			c0.2,0.7,0.6,1.2,1.2,1.7c1.7,1.3,4.1,1,5.3-0.6c1.3-1.7,1-4.1-0.6-5.3c-1.7-1.3-4-1.1-5.3,0.6c-0.6,0.8-0.9,1.8-0.8,2.7
			l-18.9,4.3c-0.4-0.9-0.9-1.8-1.8-2.5c-1.5-1.1-3.4-1.3-4.9-0.8l-5.2-12c0.6-0.3,1.2-0.8,1.7-1.4c1.6-2.1,1.5-5.1-0.3-6.9l-0.6-0.6
			c-2.3-1.7-5.6-1.3-7.4,1c-0.6,0.7-1,1.5-1.1,2.4l0,1c0,1.6,0.7,3.1,2,4.1c1.5,1.2,3.4,1.4,5,0.9l5.2,12c-0.6,0.3-1.2,0.8-1.7,1.4
			c-1.5,2-1.5,4.7,0.1,6.6l-4.6,4.5c-1.5-1.1-3.6-0.9-4.8,0.6c-1.1,1.5-0.9,3.6,0.6,4.8c1.5,1.1,3.6,0.9,4.8-0.6
			c1-1.2,1-2.9,0.1-4.1l4.6-4.5c0,0,0.1,0.1,0.2,0.1c2,1.5,4.6,1.5,6.5,0.1l5,5.6c0,0-0.1,0.1-0.1,0.2c-1.3,1.7-1.1,4.3,0.7,5.6
			c0,0.1,0.1,0.1,0.2,0.1l-15.2,28.2c-1.7-0.7-3.9-0.2-5,1.3c-1.5,2-1.1,4.6,0.7,6.1c0.6,0.4,1.2,0.7,1.9,0.8l-1.5,23.9
			c-0.9,0-1.8,0.5-2.4,1.3C1629.7,478.9,1630,481,1631.5,482z"/>
		
			<linearGradient id="SVGID_20_" gradientUnits="userSpaceOnUse" x1="1538.7797" y1="953.2092" x2="1697.3444" y2="953.2092" gradientTransform="matrix(-0.9317 0.3633 -0.3633 -0.9317 3392.8013 731.3857)">
			<stop  offset="0" style="stop-color:#2A7FF8"/>
			<stop  offset="1" style="stop-color:#5F32C0"/>
		</linearGradient>
		<path class="st22" d="M1595.9,453.4c1.3-1.6,1.1-3.8-0.4-5.2c-1.6-1.3-3.8-1.1-5.2,0.4c-0.3,0.5-0.7,1-0.8,1.5l-19.5-4.5
			c0.5-2.1-0.2-4.3-2-5.9c-0.5-0.4-1-0.8-1.7-1l2.9-7.4c1.3,0.4,2.9,0,3.9-1.1c1.3-1.6,1.1-3.8-0.4-5.2c-0.9-0.8-2.1-1.1-3.2-0.9
			l-2.9-11.7c0.8-0.2,1.5-0.7,2.1-1.3c0.7-0.8,1.1-1.9,1.2-3l9.7-0.3c0.1,0.9,0.5,1.8,1.3,2.4c1.5,1.3,3.7,1.3,5-0.1l7.6,7
			c-0.4,0.6-0.3,1.4,0.2,1.9c0.6,0.6,1.6,0.5,2.1-0.1c0.6-0.6,0.5-1.6-0.1-2.1c-0.5-0.4-1.3-0.4-1.9,0l-7.6-7c1-1.4,1.1-3.2,0.1-4.5
			l5.9-4.6l0,0c0.6,0.6,1.6,0.5,2.1-0.1c0.6-0.6,0.5-1.6-0.1-2.1c-0.6-0.6-1.6-0.5-2.1,0.1c-0.4,0.5-0.5,1.2-0.2,1.7l-5.9,4.6
			c-0.1-0.1-0.2-0.2-0.3-0.3c-0.8-0.8-1.9-1.1-3-0.9l-1.2-5.5c0.3-0.1,0.5-0.3,0.7-0.5c0.6-0.8,0.6-1.8-0.1-2.5
			c-0.8-0.6-1.8-0.6-2.5,0.1c-0.6,0.8-0.6,1.8,0.1,2.5c0.4,0.4,0.8,0.5,1.3,0.4l1.2,5.6c-0.7,0.2-1.2,0.6-1.8,1.1
			c-0.7,0.7-1,1.5-1,2.4l-9.7,0.2c0-1.1-0.6-2.3-1.5-3.1c-0.8-0.6-1.6-1.1-2.4-1.1l1.9-20.1c1.1,0,2.1-0.4,2.9-1.2
			c1.1-1.3,1.2-3.1,0.2-4.5l4.1-3.2l0,0.1c0.8,0.6,2,0.6,2.7-0.2l0.1-0.1l5.1,3.1c-0.5,1-0.3,2.3,0.6,3.1c0.8,0.7,2.1,0.9,3.1,0.3
			l6.6,9.3l-0.1,0c-0.6,0.6-0.5,1.6,0.1,2.1c0.6,0.6,1.5,0.6,2.1-0.1c0.6-0.6,0.5-1.6-0.1-2.1c-0.5-0.3-1.1-0.5-1.7-0.2l-6.6-9.3
			c0.1-0.1,0.2-0.2,0.3-0.3c0.7-0.7,0.8-1.7,0.6-2.5l9.6-4c0.1,0.2,0.3,0.4,0.4,0.6c0.8,0.7,2.1,0.6,2.9-0.2
			c0.7-0.8,0.6-2.1-0.2-2.9c-0.8-0.7-2.1-0.6-2.9,0.2c-0.4,0.6-0.6,1.3-0.4,1.9l-9.6,4c-0.2-0.3-0.3-0.6-0.6-0.8
			c-0.3-0.3-0.7-0.5-1.2-0.6l2.3-18c0.5,0,1.1-0.2,1.5-0.7c0.7-0.8,0.6-2.1-0.2-2.9s-2.1-0.6-2.9,0.2c-0.7,0.8-0.6,2.1,0.2,2.9
			c0.3,0.3,0.6,0.4,0.9,0.5l-2.3,18c-0.7,0-1.5,0.3-2.1,0.9c0,0-0.1,0.1-0.1,0.2l-5.1-3.1c0.4-0.7,0.2-1.6-0.4-2.1
			c-0.8-0.6-2-0.6-2.7,0.2c-0.6,0.6-0.6,1.5-0.2,2.2l-4.1,3.2c-0.1-0.1-0.2-0.2-0.3-0.3c-1.6-1.3-3.8-1.2-5.2,0.4
			c-0.4,0.5-0.7,1.1-0.8,1.7l0,0.4c-0.1,1.1,0.3,2.3,1.2,3.1c0.6,0.5,1.2,0.8,1.9,0.9l-1.9,20.1c-1.4-0.1-2.8,0.4-3.7,1.5
			c-1.3,1.6-1.5,3.7-0.5,5.4l-4.4,2.8c-0.2-0.1-0.4-0.4-0.5-0.5c-1.3-1.3-3.6-1.1-4.8,0.3c-1.3,1.3-1.1,3.6,0.3,4.8
			c1.3,1.3,3.6,1.1,4.8-0.3c1-1.1,1.1-2.8,0.5-4l4.4-2.8c0.2,0.2,0.4,0.6,0.7,0.8c1.1,1,2.6,1.4,4,1.1l2.9,11.7
			c-0.6,0.2-1.2,0.6-1.7,1.1c-1.3,1.6-1.1,3.8,0.4,5.2c0.2,0.2,0.6,0.4,0.9,0.6l-2.9,7.4c-2.3-0.9-5-0.2-6.8,1.7
			c-0.9,1-1.4,2.1-1.5,3.3l-15.9-1.6c0-1.1-0.4-2.1-1.2-2.9c-1.6-1.3-3.8-1.1-5.2,0.4c-0.1,0.2-0.3,0.3-0.3,0.5l-17.5-10.1
			c0.7-1.2,0.7-2.6,0.1-3.8l7.9-4.3c0.1,0.2,0.3,0.4,0.4,0.6c1.1,1,2.9,0.9,3.9-0.3c1-1.1,0.9-2.9-0.3-3.9c-1.1-1-2.9-0.9-3.9,0.3
			c-0.7,0.8-0.9,1.9-0.4,2.9l-7.9,4.3c-0.2-0.3-0.5-0.7-0.8-1c-1.3-1.1-3-1.3-4.5-0.8l-3.5-7.4c0.1-0.2,0.3-0.2,0.5-0.4
			c0.7-0.8,0.7-2-0.1-2.8s-2-0.7-2.8,0.1c-0.2,0.1-0.2,0.2-0.3,0.3l-8.3-3.5c0.2-0.4,0-0.9-0.4-1.2c-0.6-0.5-1.4-0.4-1.9,0.1
			c-0.5,0.6-0.4,1.4,0.1,1.9c0.5,0.5,1.3,0.4,1.8-0.1c0.1,0,0.1-0.1,0.1-0.2l8.3,3.5c-0.3,0.6,0,1.5,0.6,2c0.6,0.5,1.3,0.6,1.9,0.4
			l3.5,7.4c-0.4,0.3-0.8,0.6-1.2,1c-0.4,0.6-0.7,1.1-0.9,1.7l-18-4.1c0.1-1-0.2-2-1-2.8c-1.3-1.2-3.2-1-4.3,0.2
			c-0.4,0.5-0.7,1.2-0.7,1.9l-4,0.1c-0.1-0.7-0.4-1.5-1-2c-1.1-0.9-2.5-1-3.6-0.4l-5.5-8.2c0.1,0,0.1-0.2,0.2-0.2
			c0.7-0.8,0.7-2-0.1-2.8c-0.8-0.7-2-0.7-2.8,0.1c-0.7,0.8-0.7,2,0.1,2.8c0.6,0.6,1.5,0.7,2.2,0.3l5.5,8.2c-0.1,0-0.2,0.2-0.4,0.4
			c-0.1,0.2-0.3,0.3-0.4,0.6l-26.1-11.9c0.3-0.8,0.1-1.7-0.6-2.3c-0.9-0.8-2.3-0.8-3.1,0.2s-0.8,2.3,0.2,3.1s2.3,0.8,3.1-0.2
			c0.2-0.1,0.2-0.2,0.3-0.3l26.1,11.9c-0.5,1.1-0.2,2.5,0.8,3.4c0.2,0.1,0.5,0.3,0.7,0.5l-2.5,6.8c-0.8-0.2-1.6,0-2.2,0.6
			c-0.7,0.8-0.6,2.1,0.2,3c0.8,0.7,2.1,0.6,3-0.2c0.7-0.8,0.6-2.1-0.2-3c-0.2-0.1-0.3-0.3-0.5-0.3l2.5-6.8c1.2,0.3,2.4,0,3.2-0.9
			c0.4-0.5,0.7-1.2,0.7-1.9l4-0.1c0.1,0.7,0.4,1.5,1,2c1.3,1.2,3.2,1,4.3-0.2c0.3-0.4,0.4-0.8,0.6-1.2l18,4.1c-0.3,1.5,0.2,3,1.3,4
			c0.6,0.6,1.5,0.9,2.3,1l-0.6,6.1c-1.1,0-2.1,0.4-2.9,1.2c-1.3,1.6-1.1,3.8,0.4,5.2c1.6,1.3,3.8,1.2,5.2-0.4
			c1.3-1.6,1.1-3.8-0.4-5.2c-0.5-0.5-1.2-0.8-1.9-0.9l0.6-6.1c1.3,0,2.5-0.5,3.4-1.4c0.1-0.2,0.3-0.4,0.4-0.6l17.5,10.1
			c-0.7,1.2-0.6,2.8,0.4,3.9l-14.4,13.1c0-0.1-0.1-0.1-0.2-0.1c-1.1-0.9-2.6-1.2-3.8-0.7l-1.5-3.5c0.1,0,0.2-0.1,0.2-0.2
			c0.5-0.6,0.4-1.4-0.1-1.9c-0.6-0.5-1.4-0.4-1.9,0.1c-0.5,0.6-0.4,1.4,0.1,1.9c0.3,0.3,0.8,0.3,1.2,0.3l1.5,3.5
			c-0.4,0.3-0.8,0.5-1.1,0.9c-0.6,0.6-0.9,1.4-0.9,2.2l-18.5,0.5c0-0.6-0.4-1.3-0.9-1.8c-1.1-1-2.8-0.9-3.8,0.2
			c-1,1.1-0.9,2.8,0.2,3.8c0.5,0.3,0.8,0.5,1.4,0.6l-0.6,8.6c-0.4,0.1-0.7,0.2-0.9,0.4c-0.5,0.6-0.4,1.4,0.1,1.9
			c0.6,0.5,1.4,0.4,1.9-0.1c0.5-0.6,0.4-1.4-0.1-1.9c-0.2-0.1-0.3-0.3-0.5-0.3l0.6-8.6c0.7,0,1.5-0.3,2-0.9c0.4-0.5,0.6-1.1,0.7-1.6
			l18.2-0.3c0,0.9,0.4,1.8,1.2,2.5c0.6,0.4,1.2,0.8,1.9,0.8l-1.5,15.7c-0.6,0-1.3,0.3-1.7,0.8c-0.8,0.9-0.7,2.4,0.2,3.3
			c0.9,0.8,2.4,0.7,3.3-0.2c0.8-0.9,0.7-2.4-0.2-3.3c-0.3-0.3-0.6-0.5-1-0.5l1.5-15.7c1.1,0,2.1-0.4,2.9-1.2
			c0.1-0.2,0.3-0.4,0.4-0.6l7.3,3.8c-0.6,1.2-0.2,2.6,0.7,3.5c0.6,0.6,1.6,0.9,2.5,0.7l0.9,3.9c-0.2,0.1-0.4,0.3-0.7,0.5
			c-0.6,0.8-0.6,1.8,0.1,2.5c0.8,0.6,1.8,0.6,2.5-0.1c0.6-0.8,0.6-1.8-0.1-2.5c-0.4-0.4-0.8-0.5-1.3-0.4l-0.9-3.9
			c0.6-0.1,1.1-0.4,1.4-0.9c1.2-1.2,1-3.2-0.2-4.3c0-0.1-0.2-0.1-0.2-0.1l-0.3-0.3c-1.2-0.7-2.8-0.5-3.8,0.7
			c-0.1,0.2-0.2,0.3-0.3,0.5l-7.3-3.8c0.6-1.3,0.3-2.7-0.5-3.8l14.4-13.1c0,0.1,0.1,0.1,0.2,0.1c1.6,1.3,3.8,1.2,5.2-0.4
			c0.4-0.6,0.7-1.2,0.8-1.9l15.9,1.6c-0.1,1.8,0.6,3.8,2.1,5.1c1.3,1.2,3,1.7,4.6,1.6l2.4,23.3c-0.8,0.1-1.6,0.5-2.2,1.2
			c-1.3,1.6-1.1,3.8,0.4,5.2c1.6,1.3,3.8,1.1,5.2-0.4c1.3-1.6,1.1-3.8-0.4-5.2c-0.7-0.8-1.7-1-2.6-1l-2.4-23.3
			c1.4-0.1,2.8-0.9,3.8-2c0.8-0.7,1.2-1.6,1.4-2.6l19.5,4.5c-0.2,1.2,0.3,2.5,1.2,3.4C1591.6,455.1,1594,454.9,1595.9,453.4z"/>
		
			<linearGradient id="SVGID_21_" gradientUnits="userSpaceOnUse" x1="1814.6909" y1="959.7809" x2="1870.3586" y2="959.7809" gradientTransform="matrix(-0.9317 0.3633 -0.3633 -0.9317 3392.8013 731.3857)">
			<stop  offset="0" style="stop-color:#2A7FF8"/>
			<stop  offset="1" style="stop-color:#5F32C0"/>
		</linearGradient>
		<path class="st23" d="M1291.2,476.5c-0.1,0.2-0.3,0.4-0.4,0.6c-0.7,1.3-0.2,3.1,1.2,3.8c0.5,0.2,1.1,0.4,1.7,0.3l4.6,20.3
			c-0.5,0.2-1,0.6-1.3,1.2c-0.7,1.2-0.2,2.7,1,3.3c1.2,0.7,2.7,0.2,3.3-1c0.1-0.3,0.2-0.5,0.2-0.7l12.5,1.1
			c-0.1,1.1,0.4,2.1,1.5,2.7c1.2,0.6,2.7,0.3,3.6-0.8l5.7,4.4c-0.1,0.1-0.2,0.3-0.3,0.4c-0.8,1.6-0.7,3.4,0.3,4.8l-7,5.6
			c-0.3-0.3-0.5-0.5-0.9-0.7c-1.7-0.9-3.7-0.2-4.5,1.3c-0.9,1.6-0.2,3.7,1.3,4.5c1.6,0.9,3.7,0.2,4.5-1.3c0.6-1.1,0.5-2.4-0.2-3.4
			l7-5.6c0.3,0.4,0.7,0.8,1.2,1c0.5,0.3,1.1,0.4,1.7,0.5l-1.6,26.1c-1.1,0-2.3,0.7-2.9,1.8c-0.3,0.6-0.4,1.2-0.3,1.8l0.1,0.5
			c0.2,0.9,0.8,1.7,1.7,2.2c1.7,0.9,3.7,0.2,4.5-1.3c0.9-1.6,0.2-3.7-1.3-4.5c-0.3-0.2-0.7-0.2-1.1-0.3l1.6-26.1
			c1.7,0,3.2-0.8,4.1-2.4c0.1-0.3,0.3-0.4,0.3-0.6l20.6,6.3c-0.4,1.5,0.3,2.9,1.6,3.7c1.6,0.9,3.7,0.2,4.5-1.3
			c0.9-1.7,0.2-3.7-1.3-4.5c-1.6-0.9-3.7-0.2-4.5,1.3c-0.1,0.1-0.1,0.3-0.2,0.4l-20.6-6.3c0.4-1.6-0.2-3.4-1.3-4.5l14.5-17.5
			c0.1,0.1,0.2,0.1,0.3,0.2c1.5,0.8,3.2,0.2,4-1.3c0.8-1.5,0.2-3.2-1.3-4c-0.8-0.4-1.7-0.5-2.4-0.2l-0.5,0.2
			c-0.5,0.3-0.9,0.7-1.2,1.2c-0.7,1.2-0.3,2.7,0.6,3.6l-14.5,17.5c-0.2-0.1-0.3-0.3-0.6-0.4c-1.9-1.1-4.3-0.5-5.7,1.1l-5.7-4.4
			c0.1,0,0.1,0,0.1-0.2c0.8-1.5,0.3-3.4-1.2-4.1s-3.2-0.1-4,1.3c-0.1,0.3-0.2,0.5-0.3,0.9l-12.5-1.1c0-0.8-0.5-1.7-1.3-2.1
			c-0.5-0.2-1-0.4-1.5-0.3l-4.5-20.2c0.6-0.2,1.3-0.7,1.7-1.4c0.7-1.3,0.2-3.1-1.2-3.8c-1-0.5-2.3-0.4-3.1,0.3L1291.2,476.5z"/>
		
			<linearGradient id="SVGID_22_" gradientUnits="userSpaceOnUse" x1="1204.2686" y1="947.6499" x2="1301.3517" y2="947.6499" gradientTransform="matrix(-0.9317 0.3633 -0.3633 -0.9317 3392.8013 731.3857)">
			<stop  offset="0" style="stop-color:#2A7FF8"/>
			<stop  offset="1" style="stop-color:#5F32C0"/>
		</linearGradient>
		<path class="st24" d="M1933.1,322l-12.7-21.4c2.9-1.8,4.4-5.1,4.2-8.5l-0.1-0.8c-0.1-0.9-0.3-1.7-0.7-2.4
			c-0.6-1.2-1.3-2.1-2.2-2.9l-0.6-0.6c-2.7-2-6.3-2.5-9.5-0.9c-3.3,1.6-5.1,4.7-5.3,8l-22.3,0c0.1-1,0-2.1-0.5-3.1
			c-1.3-2.8-4.7-4-7.6-2.7c-1,0.4-1.8,1.1-2.3,1.9l-13.3-7.5c0.9-1.8,1-4,0-5.9c-1.6-3.4-5.7-4.8-9-3.2c-0.1,0-0.1,0-0.2,0.1
			l-7.4-12.3c1.9-1.4,2.6-4.1,1.5-6.3c-1.2-2.6-4.2-3.6-6.7-2.4c-2.6,1.2-3.6,4.2-2.4,6.7c1.2,2.6,4.2,3.6,6.7,2.4
			c0.1,0,0.1,0,0.1,0l7.4,12.3c-1.9,1.4-3,3.5-2.9,5.7l0,0.8c0.1,0.7,0.2,1.4,0.6,2c0.4,1.1,1.2,2,2.1,2.6l-9.6,14.8
			c-1.1-0.5-2.4-0.6-3.7,0c-2.1,1-3,3.5-2,5.6c1,2.1,3.5,3,5.6,2c2.1-1,3-3.5,2-5.6c-0.3-0.6-0.7-1.1-1.2-1.4l9.6-14.8
			c1.8,1.1,4.2,1.2,6.2,0.2c1.2-0.6,2.1-1.4,2.7-2.4l13.3,7.5c-0.7,1.4-0.7,3.2,0,4.8c1.3,2.8,4.7,4,7.6,2.7c1.5-0.7,2.6-2.1,3-3.6
			l22.4-0.1c0.2,1.2,0.4,2.4,1,3.5c0.8,1.8,2.2,3.1,3.8,4.1l-8.3,16.3c-1.7-0.7-3.8-0.7-5.6,0.2c-2.3,1.1-3.7,3.2-3.9,5.5l-13.2-1
			c0-0.8-0.1-1.6-0.5-2.4c-1.3-2.8-4.7-4-7.6-2.7c-0.5,0.2-0.8,0.4-1.1,0.6l-4.6-5c0.5-0.6,0.6-1.6,0.2-2.4c-0.6-1.2-2-1.6-3.2-1.1
			c-1.2,0.6-1.6,2-1.1,3.2c0.6,1.2,2,1.6,3.2,1.1c0.1,0,0.2-0.1,0.3-0.1l4.6,5c-1.6,1.7-2.1,4.2-1,6.4c0.6,1.2,1.6,2.1,2.7,2.6
			l-2.3,5.9c-0.7-0.2-1.6-0.2-2.3,0.2c-1.2,0.6-1.9,1.8-2,3l-16.3,1.1c-0.1-0.2-0.1-0.4-0.2-0.6c-0.8-1.5-2.6-2.1-4.1-1.4
			c-1.5,0.8-2.1,2.6-1.4,4.1c0.8,1.5,2.6,2.1,4.1,1.4c1.1-0.5,1.6-1.5,1.7-2.6l16.3-1.1c0,0.3,0.1,0.6,0.2,0.9
			c0.8,1.8,2.9,2.5,4.6,1.7c1.8-0.8,2.5-2.9,1.7-4.6c-0.3-0.7-0.8-1.2-1.4-1.5l2.3-5.9c1.3,0.3,2.7,0.3,4.1-0.3
			c1.8-0.8,2.9-2.5,3.2-4.3l13.2,1c0,0.9,0.2,1.9,0.7,2.9c0.8,1.5,2,2.7,3.4,3.3l-12.4,35.1c-0.7-0.2-1.5-0.1-2.2,0.2
			c-1.8,0.8-2.5,2.9-1.7,4.6s2.9,2.5,4.6,1.7c1.8-0.8,2.5-2.9,1.7-4.6c-0.3-0.7-0.9-1.2-1.6-1.6l12.4-35.1c1.7,0.5,3.4,0.4,5.1-0.3
			c3.5-1.7,5-5.8,3.3-9.3c-0.6-1.3-1.7-2.4-2.9-3.1l8.2-16.2c2.4,1.1,5.3,1.1,7.8-0.1c0.2-0.1,0.3-0.1,0.4-0.1l12.7,21.4
			c-2.6,1.7-3.6,5.2-2.2,8.1c1.5,3.3,5.4,4.6,8.6,3.1c3.3-1.5,4.6-5.4,3.1-8.6c-1.5-3.3-5.4-4.6-8.6-3.1
			C1933.1,322.1,1933.1,322.1,1933.1,322z"/>
		
			<linearGradient id="SVGID_23_" gradientUnits="userSpaceOnUse" x1="1314.105" y1="705.8493" x2="1454.7552" y2="705.8493" gradientTransform="matrix(-0.9317 0.3633 -0.3633 -0.9317 3392.8013 731.3857)">
			<stop  offset="0" style="stop-color:#2A7FF8"/>
			<stop  offset="1" style="stop-color:#5F32C0"/>
		</linearGradient>
		<path class="st25" d="M1786.8,551.2c-1.6-0.3-3.1,0.7-3.4,2.3s0.7,3.1,2.3,3.4c0.9,0.2,1.9-0.1,2.5-0.7l33.8,29.1
			c-0.5,0.6-0.7,1.3-0.9,2c-0.4,1.5,0,3,1,4.1l-11.1,10.7c-0.4-0.4-0.9-0.6-1.4-0.7c-1.9-0.3-3.6,0.9-4,2.7c-0.1,0.6,0,1,0,1.5
			l-14.6,5.5c-0.4-0.7-1.2-1.3-2.1-1.5c-1.6-0.3-3.3,0.8-3.6,2.4c-0.3,1.6,0.8,3.3,2.4,3.6c1.6,0.3,3.3-0.8,3.6-2.4
			c0-0.4,0-0.8-0.1-1.2l14.6-5.5c0.5,0.8,1.3,1.5,2.3,1.7c1.8,0.3,3.6-0.9,4-2.7c0.1-1-0.1-1.9-0.6-2.7l11.1-10.7
			c0.6,0.6,1.4,1,2.4,1.2c0.9,0.2,1.9,0.1,2.7-0.2l5.2,10.6c-1.4,0.9-2.6,2.4-3,4.2c-0.7,3.4,1.5,6.7,4.9,7.4
			c3.4,0.7,6.7-1.5,7.4-4.9c0.2-1.6,0-3-0.7-4.3l30.1-20.3c1.3,1.8,3.3,3,5.6,3.5c2.2,0.4,4.2,0,6-0.9l4.6,8
			c-1.3,0.9-2.3,2.4-2.7,4.1c-0.5,2.7,0.7,5.3,2.8,6.7l0.8,0.4c0.5,0.2,1,0.4,1.6,0.5c3.5,0.7,6.9-1.5,7.6-5.1s-1.6-7-5.1-7.6
			c-1.5-0.3-2.9,0-4.1,0.5l-4.6-8c2-1.3,3.5-3.4,4-5.9c0.1-0.6,0.2-1.1,0.2-1.7l22.7-1.2c0.3,2.4,2.2,4.5,4.7,5
			c3.2,0.6,6.2-1.4,6.8-4.6c0.6-3.2-1.4-6.2-4.6-6.8s-6.2,1.4-6.8,4.6c-0.1,0.3-0.2,0.7-0.1,1l-22.7,1.2c-0.4-3.1-2.3-5.9-5.2-7.3
			l3.8-8.8c0.3,0.1,0.4,0.2,0.6,0.2c2.6,0.5,5.3-1.2,5.8-3.9c0.5-2.6-1.2-5.3-3.9-5.8c-2.6-0.5-5.3,1.2-5.8,3.9
			c-0.5,2.3,0.7,4.4,2.5,5.4l-3.8,8.8c-0.5-0.1-0.9-0.3-1.4-0.4c-2.7-0.5-5.5,0.2-7.5,1.9l-0.6,0.6c-1.3,1.2-2.2,2.9-2.6,4.8
			c-0.5,2.3,0,4.6,1.2,6.5l-30.1,20.3c-0.9-1.2-2.2-2-3.7-2.3c-1.3-0.2-2.5-0.1-3.5,0.3l-5.2-10.6c1.2-0.7,2.1-1.9,2.4-3.3
			c0.3-1.7-0.2-3.3-1.3-4.4l6.8-7.5c0.3,0.1,0.5,0.1,0.7,0.2c1.3,0.2,2.4-0.5,2.7-1.8c0.2-1.3-0.5-2.4-1.8-2.7
			c-1.3-0.2-2.4,0.5-2.7,1.8c-0.2,0.7,0,1.4,0.4,1.8l-6.8,7.5c-0.6-0.4-1.2-0.8-2-0.9c-0.2,0-0.4,0-0.7-0.1l-0.4-13.8
			c1.6-0.2,2.9-1.4,3.2-3c0.5-2.1-0.9-4-3-4.5s-4,0.9-4.5,3s0.9,4,3,4.5c0.1,0.1,0.3,0,0.4,0l0.4,13.7c-1.1,0.1-2.2,0.6-2.9,1.4
			l-33.8-29.1c0.1-0.3,0.3-0.6,0.4-1C1789.4,553.3,1788.3,551.8,1786.8,551.2z"/>
		
			<linearGradient id="SVGID_24_" gradientUnits="userSpaceOnUse" x1="2000.0913" y1="966.8998" x2="2029.5938" y2="966.8998" gradientTransform="matrix(-0.9317 0.3633 -0.3633 -0.9317 3392.8013 731.3857)">
			<stop  offset="0" style="stop-color:#2A7FF8"/>
			<stop  offset="1" style="stop-color:#5F32C0"/>
		</linearGradient>
		<path class="st26" d="M1187,583.9c0.9-0.8,0.9-2,0-2.9c-0.8-0.9-2-0.9-2.9,0c-0.3,0.3-0.5,0.7-0.5,1l-3.8-0.4
			c0-1.5-0.5-3.1-1.7-4.3c-1.9-2-5-2.3-7.2-0.8l-22.4-29.4c0.1,0,0.2-0.1,0.2-0.2c1.6-1.6,1.6-4.2,0-5.9c-1.6-1.6-4.2-1.6-5.9,0
			c-1.6,1.6-1.6,4.2,0,5.9c1.4,1.5,3.7,1.7,5.4,0.5l22.5,29.3c-0.1,0.2-0.4,0.4-0.5,0.5c-2.3,2.3-2.3,5.9-0.1,8.1
			c0.5,0.5,1.1,0.9,1.7,1.2l0.4,0.2c2,0.8,4.3,0.3,6-1.3c1-1,1.6-2.2,1.7-3.5l3.8,0.4c0,0.5,0.2,1.1,0.6,1.5
			C1185.1,584.6,1186.3,584.7,1187,583.9z"/>
		
			<linearGradient id="SVGID_25_" gradientUnits="userSpaceOnUse" x1="1614.2675" y1="961.1517" x2="2109.4888" y2="961.1517" gradientTransform="matrix(-0.9317 0.3633 -0.3633 -0.9317 3392.8013 731.3857)">
			<stop  offset="0" style="stop-color:#2A7FF8"/>
			<stop  offset="1" style="stop-color:#5F32C0"/>
		</linearGradient>
		<path class="st27" d="M1058.4,548.9c1.4,0.4,2.9-0.3,3.3-1.7c0.1-0.1,0.1-0.3,0.1-0.6l28-0.3c0.1,1.2,0.9,2.3,2.1,2.7
			c1.5,0.4,3.2-0.4,3.7-2c0.3-0.6,0.2-1.3,0-2l55-26.7c0.4,0.8,1.2,1.3,2,1.6c1,0.4,2,0.2,2.7-0.2l5.2,8.3c-0.3,0.2-0.6,0.6-0.8,1
			c-0.4,1.2,0.2,2.4,1.4,2.8c1.2,0.4,2.4-0.2,2.8-1.4c0.4-1.2-0.2-2.4-1.4-2.8c-0.6-0.2-1.1-0.1-1.6,0.1l-5.2-8.3
			c0.4-0.4,0.8-0.7,1-1.2l50.2,21.7l0,0c-0.4,1.5,0.4,3.2,2,3.7c0.3,0.1,0.7,0.2,1,0.1l3.8,34.6c-0.8,0.2-1.4,0.8-1.6,1.5
			c-0.4,1.2,0.2,2.4,1.4,2.8c1.1,0.4,2.3-0.2,2.7-1.4c0.4-1.2-0.2-2.4-1.4-2.8c-0.2,0-0.4,0-0.7-0.1l-3.8-34.6
			c0.3-0.1,0.6-0.2,0.9-0.4l26.2,38.6c-0.6,0.4-1.2,1.1-1.4,1.9c-0.7,2,0.5,4.3,2.6,5c1.1,0.3,2.1,0.2,3-0.2l15,26.9
			c-0.6,0.4-1.1,1-1.3,1.8c-0.6,1.7,0.4,3.5,2.1,4.1s3.5-0.4,4.1-2.1c0.4-1.4-0.2-2.9-1.3-3.7l5.4-9.6c0.1,0.1,0.1,0.1,0.3,0.1
			c1.4,0.5,2.9-0.3,3.3-1.7c0.5-1.4-0.3-2.9-1.7-3.3c-1.4-0.4-2.9,0.3-3.3,1.7c-0.3,1.1,0.1,2.3,1,3l-5.4,9.6
			c-0.1-0.1-0.3-0.1-0.4-0.2c-0.8-0.2-1.6-0.1-2.3,0.2l-15-26.9c0.7-0.5,1.4-1.2,1.7-2.1c0.2-0.4,0.2-0.9,0.2-1.3l46.1-4.9
			c0.2,1.6,1.4,2.9,2.9,3.5c1.2,0.4,2.4,0.2,3.4-0.4l7.4,11.4c-0.4,0.4-0.6,0.8-0.9,1.3c-0.4,1.4,0.3,2.9,1.7,3.3
			c1.5,0.5,2.9-0.3,3.3-1.7c0.5-1.4-0.3-2.9-1.7-3.3c-0.7-0.2-1.4-0.2-2,0.2l-7.4-11.4c0.7-0.6,1.3-1.2,1.6-2.2
			c0.1,0,0.1-0.1,0.1-0.1l28.9,6.5c-0.2,1.6,0.7,3.1,2.2,3.5c1.7,0.5,3.5-0.4,4-2.1c0.2-0.6,0.2-1.2,0-1.8l18.4-6.3
			c0.5,1.2,1.3,2.1,2.6,2.7l-7.1,19c-1.4-0.4-2.9,0.4-3.3,1.8c-0.5,1.5,0.3,2.9,1.8,3.4c1.5,0.5,2.9-0.3,3.4-1.8
			c0.3-1.3-0.2-2.7-1.5-3.2l7.1-18.9l0,0c2,0.7,4.3-0.1,5.5-1.8l8.8,5.7c-0.2,0.4-0.4,0.7-0.4,1c-0.8,2.6,0.6,5.4,3.3,6.2
			c2.6,0.8,5.4-0.6,6.2-3.3c0.4-1.4,0.2-2.8-0.5-4l22.3-15c0.7,1,1.7,1.7,3.1,2.2c0.5,0.1,0.8,0.2,1.3,0.2l0.5,0
			c1.4,0.1,2.7-0.4,3.8-1.1l4.2,5.5c-1,0.8-1.2,2.3-0.4,3.4c0.8,1.3,2.5,1.6,3.8,0.8c1.3-0.8,1.6-2.5,0.8-3.8s-2.5-1.6-3.8-0.8
			l-4.2-5.5c0.8-0.7,1.5-1.6,1.8-2.7c0.4-1.5,0.3-3.2-0.4-4.6l25.3-14.4c0.6,1,1.5,1.8,2.7,2.2c2.6,0.9,5.5-0.7,6.4-3.3
			c0.5-1.7,0.2-3.3-0.7-4.6l32.6-26.2c0.4,0.6,1.1,1,1.9,1.3c0.4,0.2,0.9,0.2,1.3,0.2l0.5,0c1.6-0.2,3.1-1.3,3.6-3
			c0-0.4,0.1-0.8,0.2-1.2l48.1-1.5c0.1,1.9,1.5,3.7,3.5,4.4c0.7,0.2,1.5,0.3,2.2,0.2l1.2,6.9c-1.1,0.3-2.1,1.1-2.5,2.3
			c-0.7,1.8,0.4,3.8,2.2,4.4c1.8,0.7,3.8-0.4,4.4-2.2c0.7-1.8-0.4-3.8-2.2-4.4c-0.5-0.2-0.9-0.3-1.4-0.2l-1.2-6.9
			c1.4-0.4,2.7-1.2,3.4-2.7l33.3,14.6l-0.1,0.1c-0.6,2,0.5,4,2.4,4.6c2,0.6,4-0.5,4.6-2.4c0.6-1.9-0.5-3.9-2.4-4.5
			c-0.3-0.1-0.5-0.1-0.7-0.2l-0.4-0.2c-1.4,0-2.6,0.8-3.2,2l-33.3-14.6c0.1-0.1,0.1-0.1,0.1-0.3c0.9-2.6-0.7-5.5-3.3-6.4
			c-2.6-0.9-5.5,0.7-6.4,3.3c-0.1,0.5-0.2,0.9-0.2,1.4l-48.1,1.3c-0.2-1.7-1.3-3.1-2.9-3.7l3.2-11c1.7,0.4,3.4-0.6,4-2.3
			c0.7-1.8-0.4-3.8-2.2-4.4c-1.8-0.7-3.8,0.4-4.4,2.2c-0.6,1.8,0.4,3.7,2.1,4.3l-3.2,11c-2.2-0.4-4.4,0.8-5.1,2.9
			c-0.4,1.3-0.1,2.7,0.6,3.8l-32.6,26.2c-0.6-0.6-1.3-1.2-2.2-1.4c-2.6-0.9-5.5,0.7-6.4,3.3c-0.4,1.3-0.2,2.7,0.3,3.9l-25.3,14.4
			c-0.6-0.9-1.5-1.7-2.6-2.3l4.8-11.2l0.1,0.1c2,0.7,4.2-0.5,4.9-2.5c0.6-2.1-0.5-4.3-2.6-5c-2-0.7-4.2,0.5-4.9,2.5
			c-0.6,1.9,0.3,3.9,1.9,4.7l-4.8,11.2c-0.1,0-0.2,0-0.3-0.1c-1.7-0.5-3.4-0.3-4.7,0.5l-9.5-15.8c0.9-0.7,1.7-1.6,2.1-2.8
			c0.8-2.4-0.3-5-2.4-6.2l9.7-19.4c0.1,0.1,0.3,0.2,0.5,0.2c2.8,0.9,5.6-0.6,6.6-3.4s-0.6-5.6-3.4-6.6c-2.3-0.7-4.6,0.2-5.9,2.1
			l-26-15.5c0.1-0.3,0.2-0.5,0.3-0.8c0.5-1.7,0-3.4-1.1-4.5l13.5-15.7c0.5,0.3,1,0.7,1.6,0.9c2.8,0.9,5.6-0.6,6.6-3.4
			s-0.6-5.6-3.4-6.6c-0.5-0.1-1-0.2-1.6-0.2l-2-38.4c1.1-0.1,2.2-0.6,3-1.5l7.6,6.5c-0.2,0.3-0.4,0.6-0.5,0.9
			c-0.5,1.7,0.4,3.4,2.1,3.9c0.7,0.2,1.4,0.2,2.1-0.1l4.6,9.6c-0.4,0.3-0.8,0.7-0.9,1.2c-0.4,1.2,0.3,2.3,1.4,2.7
			c1.2,0.4,2.3-0.3,2.7-1.4c0.4-1.1-0.2-2.2-1.3-2.6c-0.5-0.1-1-0.1-1.4,0l-4.7-9.6c0.6-0.3,1.2-1,1.4-1.7c0.5-1.7-0.4-3.4-2.1-3.9
			c-1.2-0.3-2.3,0-3.2,0.8l-7.6-6.5c0.3-0.5,0.6-0.9,0.8-1.5c0.8-2.3-0.2-4.6-2.3-5.7l18-39.4c0.1,0,0.1,0.1,0.3,0.1
			c2.4,0.7,4.9-0.6,5.7-3c0.1-0.1,0-0.2,0.1-0.3l9.6,1.8c-0.3,2,0.9,3.9,2.8,4.5c1.3,0.4,2.7,0.2,3.8-0.6l7,8.2
			c-0.3,0.3-0.6,0.8-0.8,1.2c-0.5,1.7,0.4,3.4,2.1,3.9s3.4-0.4,3.9-2.1c0.1-0.3,0.2-0.7,0.1-1l26.8-2.2c0.2,1,0.9,1.8,1.9,2.1
			c1.5,0.4,3-0.3,3.5-1.8c0.5-1.5-0.3-2.9-1.8-3.4c-1.5-0.4-3,0.3-3.5,1.8c-0.1,0.3-0.1,0.5-0.1,0.8l-26.8,2.2
			c-0.2-1.1-0.9-2.1-2.1-2.4c-1-0.4-2-0.1-2.8,0.4l-7-8.2c0.6-0.4,0.9-1,1.1-1.7c0.7-2-0.4-4.2-2.3-5l2.7-7.4c1.7,0.5,3.3-0.4,3.8-2
			c0.5-1.7-0.4-3.4-2.1-3.9c-1.7-0.5-3.4,0.4-3.9,2.1c-0.4,1.5,0.3,3.1,1.7,3.8l-2.7,7.4c-2.1-0.6-4.4,0.6-5.1,2.7c0,0,0,0.1,0,0.2
			l-9.6-1.8c0.3-2.2-1-4.4-3.1-5c-0.4-0.2-0.7-0.2-1-0.2l-0.5,0c-1.1,0-2.2,0.5-3,1.3l-6.5-6.1c0.2-0.3,0.4-0.7,0.5-1
			c0.5-1.7-0.4-3.4-2.1-3.9c-1.6-0.5-3.3,0.4-3.9,1.9l-12.6-3.4c0.2-1.6-0.6-3.1-2.1-3.6c-1.7-0.5-3.4,0.4-3.9,2.1s0.4,3.4,2.1,3.9
			c1.6,0.5,3.3-0.4,3.9-1.9l12.6,3.4c-0.2,1.6,0.6,3.1,2.1,3.6c1.1,0.4,2.2,0.1,3-0.6l6.5,6.1c-0.3,0.5-0.7,1-0.9,1.6
			c-0.7,2.2,0.3,4.4,2.2,5.4l-18,39.4c0,0-0.1-0.1-0.3-0.1c-2.6-0.9-5.2,0.6-6,3.1c-0.1,0.6-0.2,1.1-0.2,1.7l-8.5,0.9
			c-0.2-1.1-1-2-2.1-2.4c-0.4-0.2-0.8-0.2-1.2-0.2l-2.4-14.3c0.9-0.2,1.5-0.9,1.8-1.8c0.4-1.3-0.4-2.8-1.7-3.2
			c-1.3-0.4-2.8,0.4-3.2,1.7c-0.4,1.3,0.4,2.8,1.7,3.2c0.3,0.1,0.7,0.2,1,0.1l2.4,14.3c-1,0.3-1.9,1.1-2.2,2.1
			c-0.5,1.7,0.4,3.4,2.1,3.9c1.7,0.5,3.4-0.4,3.9-2.1c0.1-0.3,0.2-0.7,0.1-1l8.5-0.9c0.3,1.8,1.5,3.3,3.3,3.9
			c0.5,0.1,0.9,0.2,1.4,0.2l2,38.4c-2,0.2-3.8,1.6-4.5,3.6c-0.7,2,0,4,1.4,5.4l-13.5,15.7c-0.5-0.3-0.9-0.6-1.3-0.7
			c-1.1-0.3-2.1-0.2-3,0.1l-12.2-26.4c0.6-0.3,1.2-0.9,1.4-1.7c0.5-1.7-0.4-3.4-2.1-3.9c-1.7-0.5-3.4,0.4-3.9,2.1
			c-0.5,1.7,0.4,3.4,2.1,3.9c0.6,0.3,1.3,0.2,2,0l12.2,26.4c-1,0.5-1.8,1.3-2.2,2.5c-0.7,2.3,0.6,4.7,2.9,5.5c1.9,0.6,3.9-0.2,5-1.7
			l26,15.5c-0.2,0.3-0.3,0.5-0.4,0.9c-0.8,2.5,0.3,5,2.4,6.2l-9.7,20.3c-0.1-0.1-0.3-0.2-0.5-0.2c-2.8-0.9-5.6,0.6-6.6,3.4
			s0.6,5.6,3.4,6.6c1.4,0.4,2.8,0.3,4-0.4l9.5,15.8c-1.1,0.7-2,1.9-2.4,3.3c-0.6,1.8-0.3,3.6,0.6,5l-22.2,15
			c-0.6-0.8-1.5-1.4-2.5-1.8c-2-0.7-4.3,0.1-5.5,1.8l-8.8-5.7c0.2-0.4,0.4-0.7,0.4-1c0.8-2.6-0.6-5.4-3.3-6.2c-1.8-0.6-3.7,0-5,1.2
			l-10.6-9.7c0.2-0.3,0.4-0.7,0.5-1c0.6-1.7-0.4-3.5-2.1-4.1c-1.7-0.6-3.5,0.4-4.1,2.1c-0.6,1.7,0.4,3.5,2.1,4.1
			c1.2,0.4,2.4,0,3.3-0.8l10.6,9.7c-0.4,0.5-0.8,1-0.9,1.6c-0.4,1-0.3,1.9,0,2.9l-18.4,6.3c-0.4-0.9-1-1.6-2-1.9
			c-1.7-0.5-3.5,0.4-4,2.1l0,0l-28.9-6.5c0.3-2.1-0.9-4.2-2.9-4.8l-0.1-0.1l3.2-14.5c1.6,0.2,3.2-0.7,3.6-2.3
			c0.6-1.7-0.4-3.5-2.1-4.1c-1.2-0.4-2.5-0.1-3.3,0.8l-10.5-9.4c0.2-0.3,0.3-0.5,0.4-0.8c0.4-1.3-0.3-2.9-1.7-3.3
			c-1.3-0.4-2.9,0.3-3.3,1.7s0.3,2.9,1.7,3.3c0.9,0.3,1.9,0,2.6-0.6l10.5,9.4c-0.2,0.3-0.4,0.7-0.5,1c-0.6,1.7,0.4,3.5,2.1,4.1l0,0
			l-3.2,14.5c-2.1-0.3-4.2,0.9-4.8,2.9c-0.1,0.5-0.1,1-0.1,1.5l-46.1,4.9c-0.3-1.5-1.2-2.7-2.7-3.2c-0.1-0.1-0.3-0.1-0.5-0.1
			l0.8-5.9c1.5,0.1,2.8-0.8,3.3-2.2c0.6-1.7-0.4-3.5-2.1-4.1s-3.5,0.4-4.1,2.1s0.4,3.5,2.1,4.1c0.1,0.1,0.2,0,0.3,0.1l-0.8,5.9
			c-0.8,0-1.6,0.2-2.3,0.6l-26.2-38.6c0.5-0.4,0.8-0.8,1-1.4c0.2-0.4,0.2-0.9,0.1-1.3l7-1.6c0.2,0.6,0.6,1.1,1.4,1.4
			c1.2,0.4,2.4-0.2,2.8-1.4c0.4-1.2-0.2-2.4-1.4-2.8c-1.1-0.4-2.3,0.2-2.7,1.4c-0.1,0.3-0.1,0.6-0.1,0.9l-7,1.6
			c-0.3-0.9-1-1.7-1.9-2c-0.1-0.1-0.2,0-0.3-0.1l3.1-32.4c0.9,0,1.8-0.6,2-1.5c0.4-1.2-0.2-2.4-1.4-2.8c-1.2-0.4-2.4,0.2-2.8,1.4
			c-0.4,1.1,0.2,2.3,1.4,2.7c0.1,0,0.1,0.1,0.2,0l-3.1,32.4c-1.1,0-2.1,0.5-2.6,1.6l-50.2-21.7l0.1-0.1c0.6-1.9-0.5-3.9-2.3-4.5
			c-0.3-0.1-0.5-0.1-0.7-0.2l0.5-9c0.8,0,1.6-0.6,1.9-1.5c0.4-1.2-0.2-2.4-1.4-2.8c-0.7-0.2-1.5,0-2.1,0.4l-9.5-9.1
			c0.1-0.1,0.2-0.4,0.2-0.5c0.3-0.9-0.2-1.9-1.2-2.2c-0.9-0.3-1.9,0.2-2.2,1.2c-0.3,0.9,0.2,1.9,1.2,2.2c0.6,0.2,1.2,0.1,1.6-0.3
			l9.5,9.1c-0.1,0.2-0.3,0.4-0.4,0.7c-0.4,1.1,0.2,2.3,1.4,2.7c0.1,0.1,0.2,0,0.3,0.1l-0.5,9c-1.5,0-2.8,1-3.3,2.4
			c-0.3,0.9-0.2,1.7,0.1,2.4l-55,26.7c-0.3-0.6-1-1.1-1.7-1.3c-1.5-0.4-3.2,0.4-3.7,2c-0.1,0.3-0.1,0.5-0.2,0.7l-28.1,0.2
			c-0.1-1-0.7-1.9-1.8-2.2c-1.4-0.4-2.9,0.3-3.3,1.7C1056.5,547.6,1057.3,549.1,1058.4,548.9z"/>
		
			<linearGradient id="SVGID_26_" gradientUnits="userSpaceOnUse" x1="2041.9125" y1="1038.0903" x2="2071.6699" y2="1038.0903" gradientTransform="matrix(-0.9317 0.3633 -0.3633 -0.9317 3392.8013 731.3857)">
			<stop  offset="0" style="stop-color:#2A7FF8"/>
			<stop  offset="1" style="stop-color:#5F32C0"/>
		</linearGradient>
		<path class="st28" d="M1118.2,519.7c-0.1-1.7-1.6-3-3.3-2.9c-1.7,0.1-3,1.6-2.9,3.3l0,0.1l-9.9,1.9c-0.5-2-2.3-3.4-4.4-3.2
			c-0.1,0-0.3,0-0.4,0.1l-1.2-5.1c1.2-0.4,1.9-1.5,1.9-2.7c-0.1-1.5-1.4-2.6-2.9-2.5c-0.4,0-0.9,0.1-1.2,0.4l-5.3-6.8
			c0.4-0.4,0.7-1,0.6-1.6c0-1.1-1.1-2-2.2-1.9c-1.1,0-2,1.1-1.9,2.2c0,1.1,1.1,2,2.2,1.9c0.3,0,0.7-0.2,0.9-0.4l5.3,6.8
			c-0.5,0.5-0.8,1.4-0.8,2.2c-0.1,0.1,0,0.3,0.1,0.4l-4.3,1.4c-0.3-0.7-1.1-1.2-2-1.2c-1.1,0-2,1.1-1.9,2.2c0,1.1,1.1,2,2.2,1.9
			c1.1,0,2-1.1,1.9-2.2c0-0.1-0.1-0.2-0.1-0.3l4.3-1.4c0.4,1.1,1.5,1.8,2.7,1.7c0.1,0,0.1,0,0.2-0.1l1.2,5.1c-1.9,0.6-3.2,2.4-3,4.4
			c0.1,1.2,0.8,2.3,1.7,3l0.4,0.3c0.7,0.4,1.5,0.6,2.4,0.5c2.3-0.2,4.1-2.2,3.9-4.6c0.1-0.1,0.1-0.1,0-0.2l9.9-1.9
			c0.4,1.4,1.7,2.5,3.2,2.3C1117.2,522.7,1118.5,521.3,1118.2,519.7z"/>
		
			<linearGradient id="SVGID_27_" gradientUnits="userSpaceOnUse" x1="1971.2007" y1="1008.789" x2="1983.2648" y2="1008.789" gradientTransform="matrix(-0.9317 0.3633 -0.3633 -0.9317 3392.8013 731.3857)">
			<stop  offset="0" style="stop-color:#2A7FF8"/>
			<stop  offset="1" style="stop-color:#5F32C0"/>
		</linearGradient>
		<path class="st29" d="M1191,510.8c-0.2-1-0.9-1.6-1.9-1.6c-1,0.2-1.6,0.9-1.6,1.9c-0.1,0-0.1,0.1,0,0.2l-2.8,0.9
			c-0.5-1.2-1.5-1.9-2.7-1.9l-0.2-2.7c0.5-0.1,0.8-0.5,0.8-1c0-0.6-0.6-0.9-1.1-0.9c-0.6,0-0.9,0.6-0.9,1.1c0.1,0.5,0.4,0.9,1,0.9
			l0.2,2.7c-1.5,0.3-2.6,1.6-2.5,3.1c0,0.9,0.5,1.7,1.3,2.1l0.3,0.1c0.4,0.2,0.9,0.3,1.5,0.3c1.5-0.1,2.7-1.5,2.6-3
			c-0.1-0.2,0-0.3-0.1-0.5l2.9-0.9c0.2,0.6,1,1.1,1.7,1C1190.3,512.5,1191,511.6,1191,510.8z"/>
		
			<linearGradient id="SVGID_28_" gradientUnits="userSpaceOnUse" x1="1722.0046" y1="945.5928" x2="1752.1544" y2="945.5928" gradientTransform="matrix(-0.9317 0.3633 -0.3633 -0.9317 3392.8013 731.3857)">
			<stop  offset="0" style="stop-color:#2A7FF8"/>
			<stop  offset="1" style="stop-color:#5F32C0"/>
		</linearGradient>
		<path class="st30" d="M1445.6,485.1c1.6-2.2,1.4-5.1-0.5-6.9c-1.4-1.5-3.7-1.9-5.6-1.3l-2.7-6.8c0.5-0.2,0.9-0.4,1.2-0.8
			c1.5-1.5,1.4-3.9,0-5.4c-1.4-1.4-3.8-1.5-5.3,0c-1.5,1.4-1.5,3.8,0,5.3c1,1.1,2.5,1.3,3.8,0.9l2.7,6.8c-0.6,0.2-1.2,0.6-1.7,1.1
			c-1.4,1.4-1.8,3.3-1.4,5.2l-13.9,4c-0.1-0.4-0.2-0.6-0.6-0.9c-1-1.1-2.6-1.1-3.6-0.1c-1.1,1-1.1,2.6-0.1,3.6
			c1,1.1,2.6,1.1,3.6,0.1c0.6-0.6,0.9-1.6,0.7-2.4l13.9-4c0.2,0.9,0.7,1.5,1.3,2.1c0.8,0.7,1.7,1.2,2.8,1.4l-0.9,4.9
			c-0.1,0-0.2,0-0.3,0c-1,0.1-1.8,0.9-1.7,1.9c0.1,1,0.9,1.8,1.9,1.7c1-0.1,1.8-0.9,1.7-1.9c0-0.8-0.5-1.4-1.3-1.6l0.9-4.9
			c1.6,0.2,3.2-0.3,4.4-1.5c0.2-0.1,0.2-0.2,0.4-0.4L1445.6,485.1z"/>
		
			<linearGradient id="SVGID_29_" gradientUnits="userSpaceOnUse" x1="1887.9899" y1="855.1032" x2="1917.7316" y2="855.1032" gradientTransform="matrix(-0.9317 0.3633 -0.3633 -0.9317 3392.8013 731.3857)">
			<stop  offset="0" style="stop-color:#2A7FF8"/>
			<stop  offset="1" style="stop-color:#5F32C0"/>
		</linearGradient>
		<path class="st31" d="M1319.9,613.3c-1.2-1.2-3.1-1.2-4.3,0c-1.2,1.2-1.2,3.1,0,4.3c0.3,0.3,0.7,0.6,1.1,0.7l-2.9,10.5
			c-1-0.2-2.2,0-3,0.9c-0.2,0.2-0.4,0.5-0.6,0.7l-11-5.2c0.5-1.2,0.2-2.6-0.8-3.6c-1.4-1.4-3.5-1.4-4.7,0c-1.4,1.4-1.4,3.5,0,4.7
			c1.4,1.4,3.5,1.4,4.7,0c0.2-0.2,0.4-0.5,0.6-0.7l11,5.2c-0.5,1.2-0.2,2.6,0.8,3.6c0.2,0.2,0.6,0.4,0.9,0.6l0.4,0.2
			c1.2,0.4,2.5,0.1,3.5-0.8c0.5-0.5,0.8-1.2,0.9-1.9l0-0.4c0-0.7-0.3-1.7-1-2.2c-0.4-0.4-0.8-0.6-1.2-0.8l2.9-10.5
			c1,0.2,2.1-0.1,2.8-0.8C1321.2,616.5,1321.2,614.6,1319.9,613.3z"/>
		
			<linearGradient id="SVGID_30_" gradientUnits="userSpaceOnUse" x1="1674.5554" y1="836.3378" x2="1742.7212" y2="836.3378" gradientTransform="matrix(-0.9317 0.3633 -0.3633 -0.9317 3392.8013 731.3857)">
			<stop  offset="0" style="stop-color:#2A7FF8"/>
			<stop  offset="1" style="stop-color:#5F32C0"/>
		</linearGradient>
		<path class="st32" d="M1527.2,561.8c-0.9,0.2-1.5,0.9-1.6,1.8l-24.8-0.3c0-0.1,0-0.3-0.1-0.4c-0.3-1.6-1.9-2.5-3.5-2.2
			c-1.6,0.3-2.6,2-2.2,3.5c0.2,0.9,0.8,1.6,1.5,1.9l-7.3,16.7c-0.6-0.2-1-0.2-1.6-0.1c-1,0.2-1.7,0.8-2.1,1.7l-15-5.2
			c0.1-0.6,0.2-1.1,0-1.8c-0.4-2.1-2.5-3.5-4.6-3c-1,0.2-1.8,0.8-2.3,1.5l-0.3,0.4c-0.4,0.8-0.6,1.7-0.4,2.7
			c0.2,0.5,0.4,0.9,0.6,1.3l0.4,0.4c0.9,1,2.3,1.6,3.8,1.3c1.3-0.3,2.3-1.2,2.8-2.3l15,5.2c0,0.4-0.1,0.9,0,1.4
			c0.3,1.6,1.9,2.5,3.5,2.2c1.7-0.3,2.6-2,2.3-3.5c-0.2-0.9-0.8-1.6-1.5-1.9l7.3-16.7c0.5,0.2,1,0.2,1.6,0.1
			c1.3-0.3,2.1-1.3,2.3-2.6l24.8,0.3c-0.1,0.1-0.1,0.1,0,0.2c0.2,1.2,1.4,1.9,2.5,1.6c1.2-0.2,1.9-1.4,1.6-2.5
			C1529.6,562.3,1528.5,561.6,1527.2,561.8z"/>
		
			<linearGradient id="SVGID_31_" gradientUnits="userSpaceOnUse" x1="1894.5226" y1="981.6586" x2="1917.3698" y2="981.6586" gradientTransform="matrix(-0.9317 0.3633 -0.3633 -0.9317 3392.8013 731.3857)">
			<stop  offset="0" style="stop-color:#2A7FF8"/>
			<stop  offset="1" style="stop-color:#5F32C0"/>
		</linearGradient>
		<path class="st33" d="M1246.6,502.2c0,1.6,1.3,3,2.9,3c0.3,0,0.6,0,0.9-0.1l6,17.1c-1.1,0.4-1.8,1.5-1.9,2.7c0,1.6,1.3,3,2.9,3
			c1.6,0,3-1.3,3-2.9c0-1.6-1.3-3-2.9-3c-0.3,0-0.6,0-0.9,0.1l-6-17.1c1.1-0.4,1.8-1.5,1.9-2.7c0-0.4-0.1-0.9-0.3-1.3l7.1-3.8
			c0.7,1.3,2.1,2,3.5,2.1c0.7,0.1,1.3-0.1,1.8-0.4l0.3-0.1c1.3-0.7,2-2.1,2.1-3.5c0-0.3,0-0.5-0.1-0.8l-0.1-0.3c-0.5-1.7-2-3-3.9-3
			c-1.1,0-2.1,0.4-2.8,1.1l-0.2,0.2c-0.7,0.7-1.1,1.7-1.1,2.8c-0.1,0.7,0.1,1.3,0.4,1.8l-7.1,3.8c-0.5-0.8-1.5-1.4-2.6-1.4
			C1247.9,499.4,1246.5,500.8,1246.6,502.2z"/>
		
			<linearGradient id="SVGID_32_" gradientUnits="userSpaceOnUse" x1="2047.1689" y1="978.1187" x2="2059.4087" y2="978.1187" gradientTransform="matrix(-0.9317 0.3633 -0.3633 -0.9317 3392.8013 731.3857)">
			<stop  offset="0" style="stop-color:#2A7FF8"/>
			<stop  offset="1" style="stop-color:#5F32C0"/>
		</linearGradient>
		<path class="st34" d="M1127.2,557.7c-1.8-1.8-4.7-1.8-6.5-0.1c-0.1,0.2-0.3,0.4-0.4,0.6l-0.3,0.4c-1,1.8-0.9,4,0.7,5.5
			c0.8,0.7,1.8,1.2,2.8,1.3l-0.3,7.1c-1.1,0.1-2,1.2-1.8,2.3c0.1,1.2,1.1,2.1,2.2,2c1.2-0.1,2.1-1.1,2-2.2c0-0.9-0.8-1.7-1.7-1.9
			l0.3-7.1c1.1,0,2.2-0.5,3.2-1.3C1129.1,562.3,1129.1,559.5,1127.2,557.7z"/>
		
			<linearGradient id="SVGID_33_" gradientUnits="userSpaceOnUse" x1="2149.9092" y1="1025.451" x2="2175.0962" y2="1025.451" gradientTransform="matrix(-0.9317 0.3633 -0.3633 -0.9317 3392.8013 731.3857)">
			<stop  offset="0" style="stop-color:#2A7FF8"/>
			<stop  offset="1" style="stop-color:#5F32C0"/>
		</linearGradient>
		<path class="st35" d="M1002,570.5c1.5,0.4,3.1-0.3,3.7-1.9c0.2-0.5,0.2-1.1,0.1-1.6l6.3-2.1c0.4,1.1,1.3,1.9,2.4,2.3
			c1.5,0.5,3.1,0.1,4.1-1.1l0.2-0.3c0.2-0.3,0.4-0.7,0.5-1c0.7-2-0.4-4.3-2.4-4.9c-2-0.7-4.3,0.4-4.9,2.4c-0.2,0.7-0.3,1.5-0.1,2.2
			l-6.3,2.1c-0.4-0.7-0.9-1.3-1.8-1.6c-1.1-0.4-2.1-0.1-2.9,0.6l-6-5.6c0.1-0.3,0.3-0.4,0.4-0.7c0.4-1.1-0.3-2.3-1.4-2.7
			c-1.1-0.3-2.2,0.2-2.7,1.2l-0.2,0.4c-0.2,1,0.3,2.2,1.4,2.5c0.8,0.3,1.6,0.1,2.1-0.4l6,5.6c-0.2,0.3-0.4,0.6-0.5,0.9
			C999.6,568.5,1000.4,570.2,1002,570.5z"/>
		
			<linearGradient id="SVGID_34_" gradientUnits="userSpaceOnUse" x1="2120.0239" y1="1016.1811" x2="2139.4922" y2="1016.1811" gradientTransform="matrix(-0.9317 0.3633 -0.3633 -0.9317 3392.8013 731.3857)">
			<stop  offset="0" style="stop-color:#2A7FF8"/>
			<stop  offset="1" style="stop-color:#5F32C0"/>
		</linearGradient>
		<path class="st36" d="M1047,554.8c0.5-1,0.5-2.2-0.1-3.2c-0.9-1.5-2.9-2-4.4-1.1s-2,2.9-1.1,4.4c0.2,0.2,0.4,0.4,0.6,0.6l-6.6,7.5
			c-0.8-0.6-1.9-0.7-2.7-0.2c-0.5,0.3-0.8,0.7-1,1.2l-0.1,0.3c-0.2,0.6-0.1,1.2,0.3,1.8c0.8,1.2,2.2,1.4,3.4,0.8
			c1.2-0.8,1.4-2.2,0.8-3.4c-0.2-0.1-0.2-0.3-0.4-0.5l6.6-7.5c1,0.9,2.5,1,3.7,0.2c0.5-0.3,0.8-0.6,1.1-1L1047,554.8z"/>
	</g>
</g>
</svg>
